<?xml version="1.0" encoding="UTF-8"?>
<svg xmlns="http://www.w3.org/2000/svg" xmlns:xlink="http://www.w3.org/1999/xlink" width="321.61pt" height="60.44pt" viewBox="0 0 321.61 60.44" version="1.1">
<defs>
<clipPath id="clip1">
  <path d="M 93 28 L 136 28 L 136 60.441406 L 93 60.441406 Z M 93 28 "/>
</clipPath>
<clipPath id="clip2">
  <path d="M 309 24 L 321.609375 24 L 321.609375 45 L 309 45 Z M 309 24 "/>
</clipPath>
<clipPath id="clip3">
  <path d="M 307 23 L 321.609375 23 L 321.609375 46 L 307 46 Z M 307 23 "/>
</clipPath>
</defs>
<g id="surface1">
<g clip-path="url(#clip1)" clip-rule="nonzero">
<path style=" stroke:none;fill-rule:nonzero;fill:rgb(99.198914%,70.999146%,7.798767%);fill-opacity:1;" d="M 126.132813 59.609375 L 135.019531 47.875 L 128.339844 46.957031 L 124.582031 51.488281 C 123.765625 52.472656 122.398438 51.882813 121.6875 51.375 L 102.433594 37.640625 C 101.707031 37.121094 102.320313 36.210938 103.078125 36.085938 L 122.371094 32.910156 L 124.675781 28.980469 L 94.550781 33.941406 C 93.429688 34.125 92.574219 35.40625 93.601563 36.246094 L 121.851563 59.441406 C 122.851563 60.261719 124.992188 61.121094 126.132813 59.609375 "/>
</g>
<path style=" stroke:none;fill-rule:nonzero;fill:rgb(19.999695%,60.398865%,83.499146%);fill-opacity:1;" d="M 144.921875 1.390625 L 168.105469 43.628906 C 170.472656 47.9375 168.09375 52.421875 164.042969 51.863281 L 137.167969 48.171875 L 139.832031 43.625 L 159.226563 46.128906 C 161.242188 46.40625 161.03125 45.019531 160.179688 43.46875 L 143.824219 9.371094 C 143.480469 8.742188 142.3125 8.417969 141.917969 9.09375 L 123.8125 39.933594 C 123.277344 40.847656 123.128906 41.457031 124.292969 41.617188 L 131.949219 42.605469 L 128.339844 46.957031 L 118.617188 45.621094 C 116.804688 45.371094 116.011719 43.742188 117.085938 41.910156 L 140.40625 2.183594 C 141.453125 0.394531 143.457031 -1.277344 144.921875 1.390625 "/>
<path style=" stroke:none;fill-rule:nonzero;fill:rgb(98.799133%,70.599365%,8.198547%);fill-opacity:1;" d="M 138.382813 43.4375 L 140.261719 40.953125 L 148.554688 30.003906 C 150.402344 27.570313 150.015625 24.8125 147.507813 25.222656 L 132.878906 27.632813 L 131.015625 31.488281 L 138.859375 30.195313 C 140.550781 29.917969 140.886719 31.835938 139.566406 33.425781 L 134.25 39.832031 L 131.949219 42.605469 L 125.589844 50.273438 L 130.820313 53.417969 L 138.382813 43.4375 "/>
<path style=" stroke:none;fill-rule:nonzero;fill:rgb(19.999695%,60.398865%,83.499146%);fill-opacity:1;" d="M 187.425781 31.015625 L 186.792969 31.015625 C 186.347656 29.667969 185.964844 28.59375 185.636719 27.800781 C 185.308594 27.003906 184.988281 26.394531 184.667969 25.972656 C 184.351563 25.550781 184 25.273438 183.617188 25.140625 C 183.226563 25.011719 182.757813 24.945313 182.199219 24.945313 C 181.449219 24.945313 180.769531 25.097656 180.164063 25.410156 C 179.558594 25.71875 179.035156 26.242188 178.601563 26.984375 C 178.171875 27.726563 177.835938 28.707031 177.605469 29.9375 C 177.375 31.164063 177.257813 32.6875 177.257813 34.503906 C 177.257813 36.339844 177.363281 37.867188 177.578125 39.085938 C 177.789063 40.304688 178.113281 41.28125 178.542969 42.023438 C 178.976563 42.765625 179.515625 43.289063 180.160156 43.597656 C 180.804688 43.90625 181.570313 44.0625 182.457031 44.0625 C 183.054688 44.0625 183.5625 43.945313 183.988281 43.707031 C 184.410156 43.476563 184.792969 43.089844 185.128906 42.558594 C 185.464844 42.023438 185.773438 41.316406 186.050781 40.433594 C 186.332031 39.550781 186.632813 38.457031 186.964844 37.144531 L 187.597656 37.144531 L 187.597656 43.496094 C 186.789063 43.910156 185.945313 44.210938 185.070313 44.398438 C 184.195313 44.585938 183.324219 44.679688 182.457031 44.679688 C 181.222656 44.679688 180.074219 44.441406 179.007813 43.960938 C 177.9375 43.484375 177.007813 42.804688 176.21875 41.921875 C 175.429688 41.042969 174.808594 39.972656 174.355469 38.71875 C 173.902344 37.460938 173.675781 36.054688 173.675781 34.5 C 173.675781 32.945313 173.902344 31.539063 174.355469 30.285156 C 174.808594 29.027344 175.429688 27.960938 176.21875 27.078125 C 177.007813 26.199219 177.933594 25.519531 179.007813 25.039063 C 180.074219 24.5625 181.226563 24.320313 182.457031 24.320313 C 183.441406 24.320313 184.335938 24.421875 185.144531 24.617188 C 185.953125 24.816406 186.714844 25.074219 187.425781 25.390625 L 187.425781 31.015625 "/>
<path style="fill:none;stroke-width:2.3;stroke-linecap:butt;stroke-linejoin:miter;stroke:rgb(19.999695%,60.398865%,83.499146%);stroke-opacity:1;stroke-miterlimit:4;" d="M 1874.257813 294.24375 L 1867.929688 294.24375 C 1863.476563 307.720312 1859.648438 318.4625 1856.367188 326.392187 C 1853.085938 334.360937 1849.882813 340.454687 1846.679688 344.673437 C 1843.515625 348.892187 1840 351.665625 1836.171875 352.99375 C 1832.265625 354.282812 1827.578125 354.946875 1821.992188 354.946875 C 1814.492188 354.946875 1807.695313 353.423437 1801.640625 350.298437 C 1795.585938 347.2125 1790.351563 341.978125 1786.015625 334.55625 C 1781.71875 327.134375 1778.359375 317.329687 1776.054688 305.025 C 1773.75 292.759375 1772.578125 277.525 1772.578125 259.360937 C 1772.578125 241.001562 1773.632813 225.728125 1775.78125 213.540625 C 1777.890625 201.353125 1781.132813 191.5875 1785.429688 184.165625 C 1789.765625 176.74375 1795.15625 171.509375 1801.601563 168.423437 C 1808.046875 165.3375 1815.703125 163.775 1824.570313 163.775 C 1830.546875 163.775 1835.625 164.946875 1839.882813 167.329687 C 1844.101563 169.634375 1847.929688 173.501562 1851.289063 178.814062 C 1854.648438 184.165625 1857.734375 191.235937 1860.507813 200.064062 C 1863.320313 208.892187 1866.328125 219.829687 1869.648438 232.954687 L 1875.976563 232.954687 L 1875.976563 169.439062 C 1867.890625 165.298437 1859.453125 162.290625 1850.703125 160.415625 C 1841.953125 158.540625 1833.242188 157.603125 1824.570313 157.603125 C 1812.226563 157.603125 1800.742188 159.985937 1790.078125 164.790625 C 1779.375 169.55625 1770.078125 176.353125 1762.1875 185.18125 C 1754.296875 193.970312 1748.085938 204.673437 1743.554688 217.2125 C 1739.023438 229.790625 1736.757813 243.853125 1736.757813 259.4 C 1736.757813 274.946875 1739.023438 289.009375 1743.554688 301.548437 C 1748.085938 314.126562 1754.296875 324.790625 1762.1875 333.61875 C 1770.078125 342.407812 1779.335938 349.204687 1790.078125 354.009375 C 1800.742188 358.775 1812.265625 361.196875 1824.570313 361.196875 C 1834.414063 361.196875 1843.359375 360.18125 1851.445313 358.228125 C 1859.53125 356.235937 1867.148438 353.657812 1874.257813 350.49375 Z M 1874.257813 294.24375 " transform="matrix(0.1,0,0,-0.1,0,60.44)"/>
<path style=" stroke:none;fill-rule:nonzero;fill:rgb(19.999695%,60.398865%,83.499146%);fill-opacity:1;" d="M 198.03125 36.304688 C 197.28125 36.679688 196.570313 36.933594 195.898438 37.0625 C 195.230469 37.195313 194.644531 37.367188 194.144531 37.582031 C 193.644531 37.796875 193.246094 38.132813 192.953125 38.582031 C 192.65625 39.03125 192.511719 39.761719 192.511719 40.773438 C 192.511719 41.84375 192.691406 42.59375 193.058594 43.023438 C 193.425781 43.453125 193.964844 43.667969 194.679688 43.667969 C 195.695313 43.632813 196.507813 43.140625 197.117188 42.191406 C 197.722656 41.246094 198.027344 39.996094 198.027344 38.4375 L 198.027344 36.304688 Z M 191.441406 35.066406 L 191.441406 30.511719 C 192.136719 30.210938 192.816406 29.96875 193.476563 29.78125 C 194.136719 29.59375 194.824219 29.5 195.539063 29.5 C 196.378906 29.5 197.101563 29.609375 197.707031 29.824219 C 198.316406 30.039063 198.820313 30.316406 199.222656 30.652344 C 199.625 30.988281 199.917969 31.375 200.105469 31.804688 C 200.292969 32.238281 200.386719 32.667969 200.386719 33.097656 L 200.386719 43.613281 L 201.671875 43.613281 L 201.671875 44.230469 L 198.03125 44.230469 L 198.03125 41.757813 L 197.976563 41.757813 C 197.65625 42.636719 197.136719 43.34375 196.421875 43.878906 C 195.707031 44.414063 194.871094 44.679688 193.90625 44.679688 C 192.691406 44.679688 191.710938 44.339844 190.960938 43.65625 C 190.210938 42.972656 189.832031 42.011719 189.832031 40.773438 C 189.832031 39.949219 189.972656 39.289063 190.25 38.789063 C 190.527344 38.292969 190.898438 37.902344 191.359375 37.609375 C 191.824219 37.320313 192.347656 37.101563 192.929688 36.960938 C 193.507813 36.820313 194.101563 36.695313 194.710938 36.582031 C 195.316406 36.46875 195.910156 36.34375 196.492188 36.203125 C 197.070313 36.0625 197.585938 35.851563 198.03125 35.570313 L 198.03125 32.621094 C 198.03125 31.71875 197.820313 31.078125 197.402344 30.695313 C 196.980469 30.308594 196.414063 30.117188 195.699219 30.117188 C 195.234375 30.117188 194.84375 30.191406 194.519531 30.34375 C 194.199219 30.492188 193.910156 30.75 193.648438 31.117188 C 193.390625 31.480469 193.136719 31.988281 192.886719 32.632813 C 192.636719 33.28125 192.351563 34.09375 192.027344 35.066406 L 191.441406 35.066406 "/>
<path style="fill:none;stroke-width:2.3;stroke-linecap:butt;stroke-linejoin:miter;stroke:rgb(19.999695%,60.398865%,83.499146%);stroke-opacity:1;stroke-miterlimit:4;" d="M 1980.3125 241.353125 C 1972.8125 237.603125 1965.703125 235.064062 1958.984375 233.775 C 1952.304688 232.446875 1946.445313 230.728125 1941.445313 228.579687 C 1936.445313 226.43125 1932.460938 223.071875 1929.53125 218.579687 C 1926.5625 214.0875 1925.117188 206.782812 1925.117188 196.665625 C 1925.117188 185.9625 1926.914063 178.4625 1930.585938 174.165625 C 1934.257813 169.86875 1939.648438 167.720312 1946.796875 167.720312 C 1956.953125 168.071875 1965.078125 172.99375 1971.171875 182.485937 C 1977.226563 191.939062 1980.273438 204.439062 1980.273438 220.025 L 1980.273438 241.353125 Z M 1914.414063 253.735937 L 1914.414063 299.282812 C 1921.367188 302.290625 1928.164063 304.7125 1934.765625 306.5875 C 1941.367188 308.4625 1948.242188 309.4 1955.390625 309.4 C 1963.789063 309.4 1971.015625 308.30625 1977.070313 306.157812 C 1983.164063 304.009375 1988.203125 301.235937 1992.226563 297.876562 C 1996.25 294.517187 1999.179688 290.65 2001.054688 286.353125 C 2002.929688 282.017187 2003.867188 277.720312 2003.867188 273.423437 L 2003.867188 168.267187 L 2016.71875 168.267187 L 2016.71875 162.095312 L 1980.3125 162.095312 L 1980.3125 186.821875 L 1979.765625 186.821875 C 1976.5625 178.032812 1971.367188 170.9625 1964.21875 165.610937 C 1957.070313 160.259375 1948.710938 157.603125 1939.0625 157.603125 C 1926.914063 157.603125 1917.109375 161.001562 1909.609375 167.8375 C 1902.109375 174.673437 1898.320313 184.282812 1898.320313 196.665625 C 1898.320313 204.907812 1899.726563 211.509375 1902.5 216.509375 C 1905.273438 221.470312 1908.984375 225.376562 1913.59375 228.30625 C 1918.242188 231.196875 1923.476563 233.384375 1929.296875 234.790625 C 1935.078125 236.196875 1941.015625 237.446875 1947.109375 238.579687 C 1953.164063 239.7125 1959.101563 240.9625 1964.921875 242.36875 C 1970.703125 243.775 1975.859375 245.884375 1980.3125 248.696875 L 1980.3125 278.189062 C 1980.3125 287.2125 1978.203125 293.61875 1974.023438 297.446875 C 1969.804688 301.314062 1964.140625 303.228125 1956.992188 303.228125 C 1952.34375 303.228125 1948.4375 302.485937 1945.195313 300.9625 C 1941.992188 299.478125 1939.101563 296.9 1936.484375 293.228125 C 1933.90625 289.595312 1931.367188 284.517187 1928.867188 278.071875 C 1926.367188 271.5875 1923.515625 263.4625 1920.273438 253.735937 Z M 1914.414063 253.735937 " transform="matrix(0.1,0,0,-0.1,0,60.44)"/>
<path style=" stroke:none;fill-rule:nonzero;fill:rgb(19.999695%,60.398865%,83.499146%);fill-opacity:1;" d="M 203.359375 29.949219 L 207.109375 29.949219 L 207.109375 31.859375 L 207.164063 31.859375 C 207.484375 31.261719 207.957031 30.71875 208.585938 30.230469 C 209.210938 29.742188 209.996094 29.5 210.941406 29.5 C 211.476563 29.5 211.964844 29.570313 212.402344 29.710938 C 212.839844 29.851563 213.21875 30.085938 213.539063 30.414063 C 213.863281 30.742188 214.113281 31.167969 214.289063 31.691406 C 214.46875 32.21875 214.558594 32.863281 214.558594 33.632813 L 214.558594 43.613281 L 216.003906 43.613281 L 216.003906 44.230469 L 210.488281 44.230469 L 210.488281 43.613281 L 212.039063 43.613281 L 212.039063 33.296875 C 212.039063 32.246094 211.882813 31.519531 211.570313 31.117188 C 211.261719 30.714844 210.792969 30.511719 210.167969 30.511719 C 209.789063 30.511719 209.433594 30.597656 209.09375 30.765625 C 208.753906 30.933594 208.457031 31.195313 208.195313 31.550781 C 207.9375 31.90625 207.726563 32.351563 207.566406 32.886719 C 207.40625 33.421875 207.324219 34.054688 207.324219 34.785156 L 207.324219 43.613281 L 208.878906 43.613281 L 208.878906 44.234375 L 203.363281 44.234375 L 203.363281 43.613281 L 204.808594 43.613281 L 204.808594 30.566406 L 203.363281 30.566406 L 203.363281 29.949219 L 203.359375 29.949219 "/>
<path style="fill:none;stroke-width:2.3;stroke-linecap:butt;stroke-linejoin:miter;stroke:rgb(19.999695%,60.398865%,83.499146%);stroke-opacity:1;stroke-miterlimit:4;" d="M 2033.59375 304.907812 L 2071.09375 304.907812 L 2071.09375 285.80625 L 2071.640625 285.80625 C 2074.84375 291.782812 2079.570313 297.2125 2085.859375 302.095312 C 2092.109375 306.978125 2099.960938 309.4 2109.414063 309.4 C 2114.765625 309.4 2119.648438 308.696875 2124.023438 307.290625 C 2128.398438 305.884375 2132.1875 303.540625 2135.390625 300.259375 C 2138.632813 296.978125 2141.132813 292.720312 2142.890625 287.485937 C 2144.6875 282.2125 2145.585938 275.767187 2145.585938 268.071875 L 2145.585938 168.267187 L 2160.039063 168.267187 L 2160.039063 162.095312 L 2104.882813 162.095312 L 2104.882813 168.267187 L 2120.390625 168.267187 L 2120.390625 271.43125 C 2120.390625 281.939062 2118.828125 289.204687 2115.703125 293.228125 C 2112.617188 297.251562 2107.929688 299.282812 2101.679688 299.282812 C 2097.890625 299.282812 2094.335938 298.423437 2090.9375 296.74375 C 2087.539063 295.064062 2084.570313 292.446875 2081.953125 288.892187 C 2079.375 285.3375 2077.265625 280.884375 2075.664063 275.532812 C 2074.0625 270.18125 2073.242188 263.853125 2073.242188 256.548437 L 2073.242188 168.267187 L 2088.789063 168.267187 L 2088.789063 162.05625 L 2033.632813 162.05625 L 2033.632813 168.267187 L 2048.085938 168.267187 L 2048.085938 298.735937 L 2033.632813 298.735937 L 2033.632813 304.907812 Z M 2033.59375 304.907812 " transform="matrix(0.1,0,0,-0.1,0,60.44)"/>
<path style=" stroke:none;fill-rule:nonzero;fill:rgb(19.999695%,60.398865%,83.499146%);fill-opacity:1;" d="M 226.316406 36.304688 C 225.566406 36.679688 224.859375 36.933594 224.1875 37.0625 C 223.519531 37.195313 222.933594 37.367188 222.433594 37.582031 C 221.933594 37.796875 221.535156 38.132813 221.238281 38.582031 C 220.945313 39.03125 220.796875 39.761719 220.796875 40.773438 C 220.796875 41.84375 220.980469 42.59375 221.347656 43.023438 C 221.710938 43.453125 222.253906 43.667969 222.96875 43.667969 C 223.984375 43.632813 224.796875 43.140625 225.402344 42.191406 C 226.011719 41.246094 226.316406 39.996094 226.316406 38.4375 Z M 219.730469 35.066406 L 219.730469 30.511719 C 220.425781 30.210938 221.105469 29.96875 221.765625 29.78125 C 222.425781 29.59375 223.113281 29.5 223.828125 29.5 C 224.667969 29.5 225.390625 29.609375 225.996094 29.824219 C 226.605469 30.039063 227.109375 30.316406 227.511719 30.652344 C 227.914063 30.988281 228.207031 31.375 228.394531 31.804688 C 228.582031 32.238281 228.675781 32.667969 228.675781 33.097656 L 228.675781 43.613281 L 229.960938 43.613281 L 229.960938 44.230469 L 226.320313 44.230469 L 226.320313 41.757813 L 226.265625 41.757813 C 225.945313 42.636719 225.425781 43.34375 224.710938 43.878906 C 223.996094 44.414063 223.160156 44.679688 222.195313 44.679688 C 220.980469 44.679688 220 44.339844 219.25 43.65625 C 218.5 42.972656 218.121094 42.011719 218.121094 40.773438 C 218.121094 39.949219 218.261719 39.289063 218.539063 38.789063 C 218.816406 38.292969 219.1875 37.902344 219.648438 37.609375 C 220.113281 37.320313 220.636719 37.101563 221.21875 36.960938 C 221.796875 36.820313 222.390625 36.695313 223 36.582031 C 223.605469 36.46875 224.199219 36.34375 224.78125 36.203125 C 225.359375 36.0625 225.875 35.851563 226.320313 35.570313 L 226.320313 32.621094 C 226.320313 31.71875 226.109375 31.078125 225.691406 30.695313 C 225.269531 30.308594 224.703125 30.117188 223.988281 30.117188 C 223.523438 30.117188 223.132813 30.191406 222.808594 30.34375 C 222.488281 30.492188 222.199219 30.75 221.9375 31.117188 C 221.679688 31.480469 221.425781 31.988281 221.175781 32.632813 C 220.925781 33.28125 220.640625 34.09375 220.316406 35.066406 L 219.730469 35.066406 "/>
<path style="fill:none;stroke-width:2.3;stroke-linecap:butt;stroke-linejoin:miter;stroke:rgb(19.999695%,60.398865%,83.499146%);stroke-opacity:1;stroke-miterlimit:4;" d="M 2263.164063 241.353125 C 2255.664063 237.603125 2248.59375 235.064062 2241.875 233.775 C 2235.195313 232.446875 2229.335938 230.728125 2224.335938 228.579687 C 2219.335938 226.43125 2215.351563 223.071875 2212.382813 218.579687 C 2209.453125 214.0875 2207.96875 206.782812 2207.96875 196.665625 C 2207.96875 185.9625 2209.804688 178.4625 2213.476563 174.165625 C 2217.109375 169.86875 2222.539063 167.720312 2229.6875 167.720312 C 2239.84375 168.071875 2247.96875 172.99375 2254.023438 182.485937 C 2260.117188 191.939062 2263.164063 204.439062 2263.164063 220.025 Z M 2197.304688 253.735937 L 2197.304688 299.282812 C 2204.257813 302.290625 2211.054688 304.7125 2217.65625 306.5875 C 2224.257813 308.4625 2231.132813 309.4 2238.28125 309.4 C 2246.679688 309.4 2253.90625 308.30625 2259.960938 306.157812 C 2266.054688 304.009375 2271.09375 301.235937 2275.117188 297.876562 C 2279.140625 294.517187 2282.070313 290.65 2283.945313 286.353125 C 2285.820313 282.017187 2286.757813 277.720312 2286.757813 273.423437 L 2286.757813 168.267187 L 2299.609375 168.267187 L 2299.609375 162.095312 L 2263.203125 162.095312 L 2263.203125 186.821875 L 2262.65625 186.821875 C 2259.453125 178.032812 2254.257813 170.9625 2247.109375 165.610937 C 2239.960938 160.259375 2231.601563 157.603125 2221.953125 157.603125 C 2209.804688 157.603125 2200 161.001562 2192.5 167.8375 C 2185 174.673437 2181.210938 184.282812 2181.210938 196.665625 C 2181.210938 204.907812 2182.617188 211.509375 2185.390625 216.509375 C 2188.164063 221.470312 2191.875 225.376562 2196.484375 228.30625 C 2201.132813 231.196875 2206.367188 233.384375 2212.1875 234.790625 C 2217.96875 236.196875 2223.90625 237.446875 2230 238.579687 C 2236.054688 239.7125 2241.992188 240.9625 2247.8125 242.36875 C 2253.59375 243.775 2258.75 245.884375 2263.203125 248.696875 L 2263.203125 278.189062 C 2263.203125 287.2125 2261.09375 293.61875 2256.914063 297.446875 C 2252.695313 301.314062 2247.03125 303.228125 2239.882813 303.228125 C 2235.234375 303.228125 2231.328125 302.485937 2228.085938 300.9625 C 2224.882813 299.478125 2221.992188 296.9 2219.375 293.228125 C 2216.796875 289.595312 2214.257813 284.517187 2211.757813 278.071875 C 2209.257813 271.5875 2206.40625 263.4625 2203.164063 253.735937 Z M 2197.304688 253.735937 " transform="matrix(0.1,0,0,-0.1,0,60.44)"/>
<path style=" stroke:none;fill-rule:nonzero;fill:rgb(19.999695%,60.398865%,83.499146%);fill-opacity:1;" d="M 233.308594 30.566406 L 231.863281 30.566406 L 231.863281 29.949219 L 235.773438 29.949219 L 235.773438 32.03125 L 235.828125 32.03125 C 236.113281 31.207031 236.511719 30.578125 237.019531 30.148438 C 237.53125 29.714844 238.214844 29.5 239.070313 29.5 C 239.410156 29.5 239.753906 29.5625 240.101563 29.683594 C 240.449219 29.804688 240.722656 29.914063 240.917969 30.007813 L 240.917969 35.519531 L 240.328125 35.519531 L 239.394531 32.621094 C 239.140625 31.875 238.925781 31.332031 238.75 31.003906 C 238.570313 30.679688 238.320313 30.511719 238 30.511719 C 237.730469 30.511719 237.464844 30.632813 237.195313 30.878906 C 236.929688 31.121094 236.695313 31.453125 236.5 31.875 C 236.304688 32.296875 236.140625 32.785156 236.015625 33.339844 C 235.890625 33.890625 235.828125 34.488281 235.828125 35.125 L 235.828125 43.613281 L 237.597656 43.613281 L 237.597656 44.234375 L 231.863281 44.234375 L 231.863281 43.613281 L 233.308594 43.613281 L 233.308594 30.566406 "/>
<path style="fill:none;stroke-width:2.3;stroke-linecap:butt;stroke-linejoin:miter;stroke:rgb(19.999695%,60.398865%,83.499146%);stroke-opacity:1;stroke-miterlimit:4;" d="M 2333.085938 298.735937 L 2318.632813 298.735937 L 2318.632813 304.907812 L 2357.734375 304.907812 L 2357.734375 284.0875 L 2358.28125 284.0875 C 2361.132813 292.329687 2365.117188 298.61875 2370.195313 302.915625 C 2375.3125 307.251562 2382.148438 309.4 2390.703125 309.4 C 2394.101563 309.4 2397.539063 308.775 2401.015625 307.564062 C 2404.492188 306.353125 2407.226563 305.259375 2409.179688 304.321875 L 2409.179688 249.204687 L 2403.28125 249.204687 L 2393.945313 278.189062 C 2391.40625 285.65 2389.257813 291.079687 2387.5 294.360937 C 2385.703125 297.603125 2383.203125 299.282812 2380 299.282812 C 2377.304688 299.282812 2374.648438 298.071875 2371.953125 295.610937 C 2369.296875 293.189062 2366.953125 289.86875 2365 285.65 C 2363.046875 281.43125 2361.40625 276.548437 2360.15625 271.001562 C 2358.90625 265.49375 2358.28125 259.517187 2358.28125 253.15 L 2358.28125 168.267187 L 2375.976563 168.267187 L 2375.976563 162.05625 L 2318.632813 162.05625 L 2318.632813 168.267187 L 2333.085938 168.267187 Z M 2333.085938 298.735937 " transform="matrix(0.1,0,0,-0.1,0,60.44)"/>
<path style=" stroke:none;fill-rule:nonzero;fill:rgb(19.999695%,60.398865%,83.499146%);fill-opacity:1;" d="M 251.125 36.304688 C 250.375 36.679688 249.664063 36.933594 248.992188 37.0625 C 248.324219 37.195313 247.738281 37.367188 247.238281 37.582031 C 246.738281 37.796875 246.339844 38.132813 246.046875 38.582031 C 245.75 39.03125 245.605469 39.761719 245.605469 40.773438 C 245.605469 41.84375 245.785156 42.59375 246.152344 43.023438 C 246.519531 43.453125 247.058594 43.667969 247.773438 43.667969 C 248.789063 43.632813 249.601563 43.140625 250.210938 42.191406 C 250.816406 41.246094 251.121094 39.996094 251.121094 38.4375 L 251.121094 36.304688 Z M 244.535156 35.066406 L 244.535156 30.511719 C 245.230469 30.210938 245.910156 29.96875 246.570313 29.78125 C 247.230469 29.59375 247.917969 29.5 248.632813 29.5 C 249.472656 29.5 250.195313 29.609375 250.804688 29.824219 C 251.410156 30.039063 251.914063 30.316406 252.316406 30.652344 C 252.71875 30.988281 253.015625 31.375 253.199219 31.804688 C 253.386719 32.238281 253.480469 32.667969 253.480469 33.097656 L 253.480469 43.613281 L 254.769531 43.613281 L 254.769531 44.230469 L 251.125 44.230469 L 251.125 41.757813 L 251.070313 41.757813 C 250.75 42.636719 250.230469 43.34375 249.519531 43.878906 C 248.800781 44.414063 247.964844 44.679688 247 44.679688 C 245.785156 44.679688 244.804688 44.339844 244.054688 43.65625 C 243.304688 42.972656 242.929688 42.011719 242.929688 40.773438 C 242.929688 39.949219 243.066406 39.289063 243.34375 38.789063 C 243.621094 38.292969 243.992188 37.902344 244.457031 37.609375 C 244.917969 37.320313 245.441406 37.101563 246.023438 36.960938 C 246.601563 36.820313 247.195313 36.695313 247.804688 36.582031 C 248.410156 36.46875 249.003906 36.34375 249.585938 36.203125 C 250.164063 36.0625 250.679688 35.851563 251.125 35.570313 L 251.125 32.621094 C 251.125 31.71875 250.914063 31.078125 250.496094 30.695313 C 250.074219 30.308594 249.507813 30.117188 248.792969 30.117188 C 248.328125 30.117188 247.9375 30.191406 247.617188 30.34375 C 247.292969 30.492188 247.003906 30.75 246.746094 31.117188 C 246.484375 31.480469 246.230469 31.988281 245.980469 32.632813 C 245.730469 33.28125 245.445313 34.09375 245.125 35.066406 L 244.535156 35.066406 "/>
<path style="fill:none;stroke-width:2.3;stroke-linecap:butt;stroke-linejoin:miter;stroke:rgb(19.999695%,60.398865%,83.499146%);stroke-opacity:1;stroke-miterlimit:4;" d="M 2511.25 241.353125 C 2503.75 237.603125 2496.640625 235.064062 2489.921875 233.775 C 2483.242188 232.446875 2477.382813 230.728125 2472.382813 228.579687 C 2467.382813 226.43125 2463.398438 223.071875 2460.46875 218.579687 C 2457.5 214.0875 2456.054688 206.782812 2456.054688 196.665625 C 2456.054688 185.9625 2457.851563 178.4625 2461.523438 174.165625 C 2465.195313 169.86875 2470.585938 167.720312 2477.734375 167.720312 C 2487.890625 168.071875 2496.015625 172.99375 2502.109375 182.485937 C 2508.164063 191.939062 2511.210938 204.439062 2511.210938 220.025 L 2511.210938 241.353125 Z M 2445.351563 253.735937 L 2445.351563 299.282812 C 2452.304688 302.290625 2459.101563 304.7125 2465.703125 306.5875 C 2472.304688 308.4625 2479.179688 309.4 2486.328125 309.4 C 2494.726563 309.4 2501.953125 308.30625 2508.046875 306.157812 C 2514.101563 304.009375 2519.140625 301.235937 2523.164063 297.876562 C 2527.1875 294.517187 2530.15625 290.65 2531.992188 286.353125 C 2533.867188 282.017187 2534.804688 277.720312 2534.804688 273.423437 L 2534.804688 168.267187 L 2547.695313 168.267187 L 2547.695313 162.095312 L 2511.25 162.095312 L 2511.25 186.821875 L 2510.703125 186.821875 C 2507.5 178.032812 2502.304688 170.9625 2495.195313 165.610937 C 2488.007813 160.259375 2479.648438 157.603125 2470 157.603125 C 2457.851563 157.603125 2448.046875 161.001562 2440.546875 167.8375 C 2433.046875 174.673437 2429.296875 184.282812 2429.296875 196.665625 C 2429.296875 204.907812 2430.664063 211.509375 2433.4375 216.509375 C 2436.210938 221.470312 2439.921875 225.376562 2444.570313 228.30625 C 2449.179688 231.196875 2454.414063 233.384375 2460.234375 234.790625 C 2466.015625 236.196875 2471.953125 237.446875 2478.046875 238.579687 C 2484.101563 239.7125 2490.039063 240.9625 2495.859375 242.36875 C 2501.640625 243.775 2506.796875 245.884375 2511.25 248.696875 L 2511.25 278.189062 C 2511.25 287.2125 2509.140625 293.61875 2504.960938 297.446875 C 2500.742188 301.314062 2495.078125 303.228125 2487.929688 303.228125 C 2483.28125 303.228125 2479.375 302.485937 2476.171875 300.9625 C 2472.929688 299.478125 2470.039063 296.9 2467.460938 293.228125 C 2464.84375 289.595312 2462.304688 284.517187 2459.804688 278.071875 C 2457.304688 271.5875 2454.453125 263.4625 2451.25 253.735937 Z M 2445.351563 253.735937 " transform="matrix(0.1,0,0,-0.1,0,60.44)"/>
<path style=" stroke:none;fill-rule:nonzero;fill:rgb(19.999695%,60.398865%,83.499146%);fill-opacity:1;" d="M 268.671875 43.613281 L 269.929688 43.613281 C 271.839844 43.613281 273.242188 43.253906 274.132813 42.53125 C 275.027344 41.808594 275.472656 40.546875 275.472656 38.75 C 275.472656 37.136719 275.117188 36 274.402344 35.335938 C 273.6875 34.667969 272.570313 34.335938 271.054688 34.335938 L 268.667969 34.335938 L 268.667969 43.613281 Z M 268.671875 33.71875 L 270.195313 33.71875 C 271.554688 33.71875 272.59375 33.394531 273.316406 32.746094 C 274.042969 32.101563 274.402344 30.988281 274.402344 29.417969 C 274.402344 27.992188 274.121094 26.964844 273.558594 26.335938 C 272.996094 25.710938 272.1875 25.394531 271.132813 25.394531 L 268.671875 25.394531 Z M 265.777344 25.394531 L 264.171875 25.394531 L 264.171875 24.777344 L 271.832031 24.777344 C 272.6875 24.777344 273.464844 24.890625 274.164063 25.113281 C 274.859375 25.339844 275.449219 25.648438 275.929688 26.042969 C 276.414063 26.433594 276.789063 26.902344 277.054688 27.445313 C 277.324219 27.992188 277.457031 28.582031 277.457031 29.21875 C 277.457031 29.949219 277.328125 30.585938 277.066406 31.128906 C 276.808594 31.675781 276.464844 32.128906 276.035156 32.492188 C 275.609375 32.859375 275.125 33.152344 274.589844 33.367188 C 274.054688 33.582031 273.507813 33.734375 272.957031 33.828125 L 272.957031 33.886719 C 274.847656 34.074219 276.296875 34.597656 277.296875 35.460938 C 278.296875 36.320313 278.796875 37.398438 278.796875 38.691406 C 278.796875 39.480469 278.632813 40.210938 278.3125 40.886719 C 277.992188 41.558594 277.5 42.144531 276.839844 42.644531 C 276.175781 43.140625 275.34375 43.527344 274.332031 43.808594 C 273.324219 44.089844 272.125 44.230469 270.730469 44.230469 L 264.167969 44.230469 L 264.167969 43.613281 L 265.773438 43.613281 L 265.773438 25.394531 L 265.777344 25.394531 "/>
<path style="fill:none;stroke-width:2.3;stroke-linecap:butt;stroke-linejoin:miter;stroke:rgb(19.999695%,60.398865%,83.499146%);stroke-opacity:1;stroke-miterlimit:4;" d="M 2686.71875 168.267187 L 2699.296875 168.267187 C 2718.398438 168.267187 2732.421875 171.860937 2741.328125 179.0875 C 2750.273438 186.314062 2754.726563 198.93125 2754.726563 216.9 C 2754.726563 233.032812 2751.171875 244.4 2744.023438 251.040625 C 2736.875 257.720312 2725.703125 261.040625 2710.546875 261.040625 L 2686.679688 261.040625 L 2686.679688 168.267187 Z M 2686.71875 267.2125 L 2701.953125 267.2125 C 2715.546875 267.2125 2725.9375 270.454687 2733.164063 276.939062 C 2740.429688 283.384375 2744.023438 294.517187 2744.023438 310.220312 C 2744.023438 324.478125 2741.210938 334.751562 2735.585938 341.040625 C 2729.960938 347.290625 2721.875 350.454687 2711.328125 350.454687 L 2686.71875 350.454687 Z M 2657.773438 350.454687 L 2641.71875 350.454687 L 2641.71875 356.626562 L 2718.320313 356.626562 C 2726.875 356.626562 2734.648438 355.49375 2741.640625 353.267187 C 2748.59375 351.001562 2754.492188 347.915625 2759.296875 343.970312 C 2764.140625 340.064062 2767.890625 335.376562 2770.546875 329.946875 C 2773.242188 324.478125 2774.570313 318.579687 2774.570313 312.2125 C 2774.570313 304.907812 2773.28125 298.540625 2770.664063 293.110937 C 2768.085938 287.642187 2764.648438 283.110937 2760.351563 279.478125 C 2756.09375 275.80625 2751.25 272.876562 2745.898438 270.728125 C 2740.546875 268.579687 2735.078125 267.05625 2729.570313 266.11875 L 2729.570313 265.532812 C 2748.476563 263.657812 2762.96875 258.423437 2772.96875 249.790625 C 2782.96875 241.196875 2787.96875 230.415625 2787.96875 217.485937 C 2787.96875 209.595312 2786.328125 202.290625 2783.125 195.532812 C 2779.921875 188.814062 2775 182.954687 2768.398438 177.954687 C 2761.757813 172.99375 2753.4375 169.126562 2743.320313 166.314062 C 2733.242188 163.501562 2721.25 162.095312 2707.304688 162.095312 L 2641.679688 162.095312 L 2641.679688 168.267187 L 2657.734375 168.267187 L 2657.734375 350.454687 Z M 2657.773438 350.454687 " transform="matrix(0.1,0,0,-0.1,0,60.44)"/>
<path style=" stroke:none;fill-rule:nonzero;fill:rgb(19.999695%,60.398865%,83.499146%);fill-opacity:1;" d="M 289.351563 36.304688 C 288.601563 36.679688 287.890625 36.933594 287.21875 37.0625 C 286.550781 37.195313 285.964844 37.367188 285.464844 37.582031 C 284.964844 37.796875 284.566406 38.132813 284.273438 38.582031 C 283.976563 39.03125 283.832031 39.761719 283.832031 40.773438 C 283.832031 41.84375 284.011719 42.59375 284.378906 43.023438 C 284.746094 43.453125 285.285156 43.667969 286 43.667969 C 287.015625 43.632813 287.828125 43.140625 288.4375 42.191406 C 289.042969 41.246094 289.347656 39.996094 289.347656 38.4375 L 289.347656 36.304688 Z M 282.761719 35.066406 L 282.761719 30.511719 C 283.457031 30.210938 284.136719 29.96875 284.796875 29.78125 C 285.457031 29.59375 286.144531 29.5 286.859375 29.5 C 287.699219 29.5 288.421875 29.609375 289.03125 29.824219 C 289.636719 30.039063 290.140625 30.316406 290.542969 30.652344 C 290.945313 30.988281 291.242188 31.375 291.425781 31.804688 C 291.613281 32.238281 291.707031 32.667969 291.707031 33.097656 L 291.707031 43.613281 L 292.996094 43.613281 L 292.996094 44.230469 L 289.351563 44.230469 L 289.351563 41.757813 L 289.296875 41.757813 C 288.976563 42.636719 288.457031 43.34375 287.746094 43.878906 C 287.027344 44.414063 286.191406 44.679688 285.226563 44.679688 C 284.011719 44.679688 283.03125 44.339844 282.28125 43.65625 C 281.53125 42.972656 281.15625 42.011719 281.15625 40.773438 C 281.15625 39.949219 281.292969 39.289063 281.570313 38.789063 C 281.847656 38.292969 282.21875 37.902344 282.683594 37.609375 C 283.144531 37.320313 283.667969 37.101563 284.25 36.960938 C 284.828125 36.820313 285.421875 36.695313 286.03125 36.582031 C 286.636719 36.46875 287.230469 36.34375 287.8125 36.203125 C 288.390625 36.0625 288.90625 35.851563 289.351563 35.570313 L 289.351563 32.621094 C 289.351563 31.71875 289.140625 31.078125 288.722656 30.695313 C 288.300781 30.308594 287.734375 30.117188 287.019531 30.117188 C 286.554688 30.117188 286.164063 30.191406 285.839844 30.34375 C 285.519531 30.492188 285.230469 30.75 284.972656 31.117188 C 284.710938 31.480469 284.457031 31.988281 284.207031 32.632813 C 283.957031 33.28125 283.671875 34.09375 283.351563 35.066406 L 282.761719 35.066406 "/>
<path style="fill:none;stroke-width:2.3;stroke-linecap:butt;stroke-linejoin:miter;stroke:rgb(19.999695%,60.398865%,83.499146%);stroke-opacity:1;stroke-miterlimit:4;" d="M 2893.515625 241.353125 C 2886.015625 237.603125 2878.90625 235.064062 2872.1875 233.775 C 2865.507813 232.446875 2859.648438 230.728125 2854.648438 228.579687 C 2849.648438 226.43125 2845.664063 223.071875 2842.734375 218.579687 C 2839.765625 214.0875 2838.320313 206.782812 2838.320313 196.665625 C 2838.320313 185.9625 2840.117188 178.4625 2843.789063 174.165625 C 2847.460938 169.86875 2852.851563 167.720312 2860 167.720312 C 2870.15625 168.071875 2878.28125 172.99375 2884.375 182.485937 C 2890.429688 191.939062 2893.476563 204.439062 2893.476563 220.025 L 2893.476563 241.353125 Z M 2827.617188 253.735937 L 2827.617188 299.282812 C 2834.570313 302.290625 2841.367188 304.7125 2847.96875 306.5875 C 2854.570313 308.4625 2861.445313 309.4 2868.59375 309.4 C 2876.992188 309.4 2884.21875 308.30625 2890.3125 306.157812 C 2896.367188 304.009375 2901.40625 301.235937 2905.429688 297.876562 C 2909.453125 294.517187 2912.421875 290.65 2914.257813 286.353125 C 2916.132813 282.017187 2917.070313 277.720312 2917.070313 273.423437 L 2917.070313 168.267187 L 2929.960938 168.267187 L 2929.960938 162.095312 L 2893.515625 162.095312 L 2893.515625 186.821875 L 2892.96875 186.821875 C 2889.765625 178.032812 2884.570313 170.9625 2877.460938 165.610937 C 2870.273438 160.259375 2861.914063 157.603125 2852.265625 157.603125 C 2840.117188 157.603125 2830.3125 161.001562 2822.8125 167.8375 C 2815.3125 174.673437 2811.5625 184.282812 2811.5625 196.665625 C 2811.5625 204.907812 2812.929688 211.509375 2815.703125 216.509375 C 2818.476563 221.470312 2822.1875 225.376562 2826.835938 228.30625 C 2831.445313 231.196875 2836.679688 233.384375 2842.5 234.790625 C 2848.28125 236.196875 2854.21875 237.446875 2860.3125 238.579687 C 2866.367188 239.7125 2872.304688 240.9625 2878.125 242.36875 C 2883.90625 243.775 2889.0625 245.884375 2893.515625 248.696875 L 2893.515625 278.189062 C 2893.515625 287.2125 2891.40625 293.61875 2887.226563 297.446875 C 2883.007813 301.314062 2877.34375 303.228125 2870.195313 303.228125 C 2865.546875 303.228125 2861.640625 302.485937 2858.398438 300.9625 C 2855.195313 299.478125 2852.304688 296.9 2849.726563 293.228125 C 2847.109375 289.595312 2844.570313 284.517187 2842.070313 278.071875 C 2839.570313 271.5875 2836.71875 263.4625 2833.515625 253.735937 Z M 2827.617188 253.735937 " transform="matrix(0.1,0,0,-0.1,0,60.44)"/>
<path style=" stroke:none;fill-rule:nonzero;fill:rgb(19.999695%,60.398865%,83.499146%);fill-opacity:1;" d="M 294.683594 29.949219 L 298.433594 29.949219 L 298.433594 31.859375 L 298.488281 31.859375 C 298.808594 31.261719 299.28125 30.71875 299.90625 30.230469 C 300.53125 29.742188 301.316406 29.5 302.265625 29.5 C 302.800781 29.5 303.285156 29.570313 303.722656 29.710938 C 304.160156 29.851563 304.542969 30.085938 304.863281 30.414063 C 305.183594 30.742188 305.433594 31.167969 305.613281 31.691406 C 305.792969 32.21875 305.878906 32.863281 305.878906 33.632813 L 305.878906 43.613281 L 307.328125 43.613281 L 307.328125 44.230469 L 301.808594 44.230469 L 301.808594 43.613281 L 303.363281 43.613281 L 303.363281 33.296875 C 303.363281 32.246094 303.207031 31.519531 302.894531 31.117188 C 302.582031 30.714844 302.113281 30.511719 301.488281 30.511719 C 301.113281 30.511719 300.757813 30.597656 300.417969 30.765625 C 300.078125 30.933594 299.777344 31.195313 299.519531 31.550781 C 299.261719 31.90625 299.050781 32.351563 298.890625 32.886719 C 298.726563 33.421875 298.648438 34.054688 298.648438 34.785156 L 298.648438 43.613281 L 300.203125 43.613281 L 300.203125 44.234375 L 294.683594 44.234375 L 294.683594 43.613281 L 296.128906 43.613281 L 296.128906 30.566406 L 294.683594 30.566406 L 294.683594 29.949219 "/>
<path style="fill:none;stroke-width:2.3;stroke-linecap:butt;stroke-linejoin:miter;stroke:rgb(19.999695%,60.398865%,83.499146%);stroke-opacity:1;stroke-miterlimit:4;" d="M 2946.835938 304.907812 L 2984.335938 304.907812 L 2984.335938 285.80625 L 2984.882813 285.80625 C 2988.085938 291.782812 2992.8125 297.2125 2999.0625 302.095312 C 3005.3125 306.978125 3013.164063 309.4 3022.65625 309.4 C 3028.007813 309.4 3032.851563 308.696875 3037.226563 307.290625 C 3041.601563 305.884375 3045.429688 303.540625 3048.632813 300.259375 C 3051.835938 296.978125 3054.335938 292.720312 3056.132813 287.485937 C 3057.929688 282.2125 3058.789063 275.767187 3058.789063 268.071875 L 3058.789063 168.267187 L 3073.28125 168.267187 L 3073.28125 162.095312 L 3018.085938 162.095312 L 3018.085938 168.267187 L 3033.632813 168.267187 L 3033.632813 271.43125 C 3033.632813 281.939062 3032.070313 289.204687 3028.945313 293.228125 C 3025.820313 297.251562 3021.132813 299.282812 3014.882813 299.282812 C 3011.132813 299.282812 3007.578125 298.423437 3004.179688 296.74375 C 3000.78125 295.064062 2997.773438 292.446875 2995.195313 288.892187 C 2992.617188 285.3375 2990.507813 280.884375 2988.90625 275.532812 C 2987.265625 270.18125 2986.484375 263.853125 2986.484375 256.548437 L 2986.484375 168.267187 L 3002.03125 168.267187 L 3002.03125 162.05625 L 2946.835938 162.05625 L 2946.835938 168.267187 L 2961.289063 168.267187 L 2961.289063 298.735937 L 2946.835938 298.735937 Z M 2946.835938 304.907812 " transform="matrix(0.1,0,0,-0.1,0,60.44)"/>
<g clip-path="url(#clip2)" clip-rule="nonzero">
<path style=" stroke:none;fill-rule:nonzero;fill:rgb(19.999695%,60.398865%,83.499146%);fill-opacity:1;" d="M 309.226563 44.230469 L 309.226563 43.613281 L 310.671875 43.613281 L 310.671875 25.394531 L 309.226563 25.394531 L 309.226563 24.777344 L 313.191406 24.777344 L 313.191406 36.527344 L 318.226563 30.566406 L 316.511719 30.566406 L 316.511719 29.949219 L 320.371094 29.949219 L 320.371094 30.566406 L 319.085938 30.566406 L 315.253906 35.207031 L 320.746094 43.613281 L 321.496094 43.613281 L 321.496094 44.230469 L 318.175781 44.230469 L 313.246094 36.753906 L 313.191406 36.753906 L 313.191406 43.613281 L 314.90625 43.613281 L 314.90625 44.230469 L 309.226563 44.230469 "/>
</g>
<g clip-path="url(#clip3)" clip-rule="nonzero">
<path style="fill:none;stroke-width:2.3;stroke-linecap:butt;stroke-linejoin:miter;stroke:rgb(19.999695%,60.398865%,83.499146%);stroke-opacity:1;stroke-miterlimit:4;" d="M 3092.265625 162.095312 L 3092.265625 168.267187 L 3106.71875 168.267187 L 3106.71875 350.454687 L 3092.265625 350.454687 L 3092.265625 356.626562 L 3131.914063 356.626562 L 3131.914063 239.126562 L 3182.265625 298.735937 L 3165.117188 298.735937 L 3165.117188 304.907812 L 3203.710938 304.907812 L 3203.710938 298.735937 L 3190.859375 298.735937 L 3152.539063 252.329687 L 3207.460938 168.267187 L 3214.960938 168.267187 L 3214.960938 162.095312 L 3181.757813 162.095312 L 3132.460938 236.860937 L 3131.914063 236.860937 L 3131.914063 168.267187 L 3149.0625 168.267187 L 3149.0625 162.095312 Z M 3092.265625 162.095312 " transform="matrix(0.1,0,0,-0.1,0,60.44)"/>
</g>
<path style=" stroke:none;fill-rule:nonzero;fill:rgb(19.999695%,60.398865%,83.499146%);fill-opacity:1;" d="M 24.820313 37.617188 C 24.820313 35.890625 24.027344 34.511719 23.0625 34.511719 C 22.097656 34.511719 21.3125 35.890625 21.3125 37.617188 C 21.3125 39.332031 22.097656 40.710938 23.0625 40.710938 C 24.027344 40.710938 24.820313 39.332031 24.820313 37.617188 Z M 27.320313 37.527344 C 27.320313 39.703125 25.449219 41.464844 23.140625 41.464844 C 20.824219 41.464844 18.953125 39.703125 18.953125 37.527344 C 18.953125 35.359375 20.828125 33.597656 23.140625 33.597656 C 25.449219 33.597656 27.320313 35.359375 27.320313 37.527344 "/>
<path style="fill:none;stroke-width:1.14495;stroke-linecap:butt;stroke-linejoin:miter;stroke:rgb(19.999695%,60.398865%,83.499146%);stroke-opacity:1;stroke-miterlimit:4;" d="M 248.203125 228.228125 C 248.203125 245.49375 240.273438 259.282812 230.625 259.282812 C 220.976563 259.282812 213.125 245.49375 213.125 228.228125 C 213.125 211.079687 220.976563 197.290625 230.625 197.290625 C 240.273438 197.290625 248.203125 211.079687 248.203125 228.228125 Z M 273.203125 229.126562 C 273.203125 207.36875 254.492188 189.751562 231.40625 189.751562 C 208.242188 189.751562 189.53125 207.36875 189.53125 229.126562 C 189.53125 250.80625 208.28125 268.423437 231.40625 268.423437 C 254.492188 268.423437 273.203125 250.80625 273.203125 229.126562 Z M 273.203125 229.126562 " transform="matrix(0.1,0,0,-0.1,0,60.44)"/>
<path style="fill:none;stroke-width:10.675;stroke-linecap:butt;stroke-linejoin:miter;stroke:rgb(19.999695%,60.398865%,83.499146%);stroke-opacity:1;stroke-miterlimit:10;" d="M 220.976563 263.30625 L 298.085938 263.30625 " transform="matrix(0.1,0,0,-0.1,0,60.44)"/>
<path style="fill:none;stroke-width:24.1875;stroke-linecap:butt;stroke-linejoin:miter;stroke:rgb(19.999695%,60.398865%,83.499146%);stroke-opacity:1;stroke-miterlimit:10;" d="M 306.132813 297.290625 L 306.132813 162.134375 " transform="matrix(0.1,0,0,-0.1,0,60.44)"/>
<path style="fill:none;stroke-width:8.02895;stroke-linecap:butt;stroke-linejoin:miter;stroke:rgb(19.999695%,60.398865%,83.499146%);stroke-opacity:1;stroke-miterlimit:10;" d="M 281.5625 163.071875 L 328.867188 163.071875 " transform="matrix(0.1,0,0,-0.1,0,60.44)"/>
<path style="fill:none;stroke-width:24.1875;stroke-linecap:butt;stroke-linejoin:miter;stroke:rgb(19.999695%,60.398865%,83.499146%);stroke-opacity:1;stroke-miterlimit:10;" d="M 476.484375 297.290625 L 476.484375 162.134375 " transform="matrix(0.1,0,0,-0.1,0,60.44)"/>
<path style="fill:none;stroke-width:8.02895;stroke-linecap:butt;stroke-linejoin:miter;stroke:rgb(19.999695%,60.398865%,83.499146%);stroke-opacity:1;stroke-miterlimit:10;" d="M 451.875 163.071875 L 499.179688 163.071875 " transform="matrix(0.1,0,0,-0.1,0,60.44)"/>
<path style=" stroke:none;fill-rule:nonzero;fill:rgb(19.999695%,60.398865%,83.499146%);fill-opacity:1;" d="M 84.882813 35.640625 C 85.789063 38.386719 84.734375 42.511719 81.28125 42.242188 C 80.703125 42.199219 80.101563 42.046875 79.816406 41.816406 L 79.816406 38.628906 L 79.875 38.628906 C 80.691406 39.371094 80.566406 41.953125 81.847656 41.375 C 83.066406 40.839844 82.984375 37.945313 82.90625 36.84375 C 82.644531 33.171875 79.78125 32.371094 77.976563 35.640625 L 77.976563 33.902344 C 80.214844 31.828125 83.882813 32.59375 84.882813 35.640625 "/>
<path style="fill:none;stroke-width:1.14495;stroke-linecap:butt;stroke-linejoin:miter;stroke:rgb(19.999695%,60.398865%,83.499146%);stroke-opacity:1;stroke-miterlimit:4;" d="M 848.828125 247.99375 C 857.890625 220.532812 847.34375 179.282812 812.8125 181.978125 C 807.03125 182.407812 801.015625 183.93125 798.164063 186.235937 L 798.164063 218.110937 L 798.75 218.110937 C 806.914063 210.689062 805.664063 184.86875 818.476563 190.65 C 830.664063 196.001562 829.84375 224.946875 829.0625 235.9625 C 826.445313 272.68125 797.8125 280.689062 779.765625 247.99375 L 779.765625 265.376562 C 802.148438 286.11875 838.828125 278.4625 848.828125 247.99375 Z M 848.828125 247.99375 " transform="matrix(0.1,0,0,-0.1,0,60.44)"/>
<path style=" stroke:none;fill-rule:nonzero;fill:rgb(19.999695%,60.398865%,83.499146%);fill-opacity:1;" d="M 76.082031 40.460938 L 76 34.621094 L 75.992188 33.460938 L 75.945313 30.230469 L 77.976563 30.230469 L 77.976563 43.691406 L 79.25 43.691406 L 79.25 44.457031 L 75.070313 44.457031 L 75.070313 43.597656 L 75.84375 43.644531 L 76.125 43.554688 L 76.09375 41.050781 L 76.082031 40.460938 "/>
<path style="fill:none;stroke-width:1.1116;stroke-linecap:butt;stroke-linejoin:miter;stroke:rgb(19.999695%,60.398865%,83.499146%);stroke-opacity:1;stroke-miterlimit:4;" d="M 760.820313 199.790625 L 760 258.189062 L 759.921875 269.790625 L 759.453125 302.095312 L 779.765625 302.095312 L 779.765625 167.485937 L 792.5 167.485937 L 792.5 159.829687 L 750.703125 159.829687 L 750.703125 168.423437 L 758.4375 167.954687 L 761.25 168.853125 L 760.9375 193.892187 Z M 760.820313 199.790625 " transform="matrix(0.1,0,0,-0.1,0,60.44)"/>
<path style=" stroke:none;fill-rule:nonzero;fill:rgb(19.999695%,60.398865%,83.499146%);fill-opacity:1;" d="M 76.082031 40.460938 L 76.09375 41.050781 C 75.59375 42.105469 74.367188 42.601563 73.242188 42.53125 C 70.039063 42.347656 68.847656 38.699219 69.492188 35.976563 C 70.242188 32.789063 73.378906 31.921875 75.945313 33.460938 L 75.992188 33.460938 L 76 34.621094 L 75.898438 34.621094 C 72.800781 31.839844 71.367188 34.875 71.628906 38.09375 C 71.800781 40.214844 74.265625 43.402344 76.035156 40.460938 L 76.082031 40.460938 "/>
<path style="fill:none;stroke-width:1.14495;stroke-linecap:butt;stroke-linejoin:miter;stroke:rgb(19.999695%,60.398865%,83.499146%);stroke-opacity:1;stroke-miterlimit:4;" d="M 760.820313 199.790625 L 760.9375 193.892187 C 755.9375 183.345312 743.671875 178.384375 732.421875 179.0875 C 700.390625 180.923437 688.476563 217.407812 694.921875 244.634375 C 702.421875 276.509375 733.789063 285.18125 759.453125 269.790625 L 759.921875 269.790625 L 760 258.189062 L 758.984375 258.189062 C 728.007813 286.001562 713.671875 255.65 716.289063 223.4625 C 718.007813 202.251562 742.65625 170.376562 760.351563 199.790625 Z M 760.820313 199.790625 " transform="matrix(0.1,0,0,-0.1,0,60.44)"/>
<path style=" stroke:none;fill-rule:nonzero;fill:rgb(19.999695%,60.398865%,83.499146%);fill-opacity:1;" d="M 15.613281 35.640625 C 16.523438 38.386719 15.46875 42.511719 12.015625 42.242188 C 11.4375 42.199219 10.835938 42.046875 10.550781 41.816406 L 10.550781 38.628906 L 10.605469 38.628906 C 11.421875 39.371094 11.300781 41.953125 12.582031 41.375 C 13.796875 40.839844 13.71875 37.945313 13.636719 36.84375 C 13.375 33.171875 10.515625 32.371094 8.710938 35.640625 L 8.710938 33.902344 C 10.949219 31.828125 14.617188 32.59375 15.613281 35.640625 "/>
<path style="fill:none;stroke-width:1.14495;stroke-linecap:butt;stroke-linejoin:miter;stroke:rgb(19.999695%,60.398865%,83.499146%);stroke-opacity:1;stroke-miterlimit:4;" d="M 156.132813 247.99375 C 165.234375 220.532812 154.6875 179.282812 120.15625 181.978125 C 114.375 182.407812 108.359375 183.93125 105.507813 186.235937 L 105.507813 218.110937 L 106.054688 218.110937 C 114.21875 210.689062 113.007813 184.86875 125.820313 190.65 C 137.96875 196.001562 137.1875 224.946875 136.367188 235.9625 C 133.75 272.68125 105.15625 280.689062 87.109375 247.99375 L 87.109375 265.376562 C 109.492188 286.11875 146.171875 278.4625 156.132813 247.99375 Z M 156.132813 247.99375 " transform="matrix(0.1,0,0,-0.1,0,60.44)"/>
<path style=" stroke:none;fill-rule:nonzero;fill:rgb(19.999695%,60.398865%,83.499146%);fill-opacity:1;" d="M 6.824219 41.050781 L 6.8125 40.460938 L 6.734375 34.621094 L 6.722656 33.460938 L 6.675781 30.230469 L 3.554688 25.929688 L 1.613281 25.929688 L 1.613281 24.773438 L 5.019531 24.773438 L 8.710938 30.230469 L 8.710938 43.785156 L 9.980469 43.785156 L 9.980469 44.550781 L 5.804688 44.550781 L 5.804688 43.785156 L 6.859375 43.785156 L 6.824219 41.0625 C 6.824219 41.0625 6.824219 41.0625 6.824219 41.050781 "/>
<path style="fill:none;stroke-width:1.14495;stroke-linecap:butt;stroke-linejoin:miter;stroke:rgb(19.999695%,60.398865%,83.499146%);stroke-opacity:1;stroke-miterlimit:4;" d="M 68.242188 193.892187 L 68.125 199.790625 L 67.34375 258.189062 L 67.226563 269.790625 L 66.757813 302.095312 L 35.546875 345.103125 L 16.132813 345.103125 L 16.132813 356.665625 L 50.195313 356.665625 L 87.109375 302.095312 L 87.109375 166.548437 L 99.804688 166.548437 L 99.804688 158.892187 L 58.046875 158.892187 L 58.046875 166.548437 L 68.59375 166.548437 L 68.242188 193.775 C 68.242188 193.775 68.242188 193.775 68.242188 193.892187 Z M 68.242188 193.892187 " transform="matrix(0.1,0,0,-0.1,0,60.44)"/>
<path style=" stroke:none;fill-rule:nonzero;fill:rgb(19.999695%,60.398865%,83.499146%);fill-opacity:1;" d="M 6.824219 41.050781 C 6.824219 41.0625 6.824219 41.0625 6.824219 41.0625 C 6.3125 42.105469 5.097656 42.601563 3.976563 42.535156 C 0.773438 42.347656 -0.417969 38.699219 0.226563 35.976563 C 0.976563 32.789063 4.109375 31.921875 6.675781 33.460938 L 6.722656 33.460938 L 6.734375 34.621094 L 6.632813 34.621094 C 3.53125 31.839844 2.101563 34.875 2.363281 38.097656 C 2.535156 40.21875 5 43.402344 6.769531 40.460938 L 6.816406 40.460938 L 6.824219 41.050781 "/>
<path style="fill:none;stroke-width:1.14495;stroke-linecap:butt;stroke-linejoin:miter;stroke:rgb(19.999695%,60.398865%,83.499146%);stroke-opacity:1;stroke-miterlimit:4;" d="M 68.242188 193.892187 C 68.242188 193.775 68.242188 193.775 68.242188 193.775 C 63.125 183.345312 50.976563 178.384375 39.765625 179.048437 C 7.734375 180.923437 -4.179688 217.407812 2.265625 244.634375 C 9.765625 276.509375 41.09375 285.18125 66.757813 269.790625 L 67.226563 269.790625 L 67.34375 258.189062 L 66.328125 258.189062 C 35.3125 286.001562 21.015625 255.65 23.632813 223.423437 C 25.351563 202.2125 50 170.376562 67.695313 199.790625 L 68.164063 199.790625 Z M 68.242188 193.892187 " transform="matrix(0.1,0,0,-0.1,0,60.44)"/>
<path style=" stroke:none;fill-rule:nonzero;fill:rgb(19.999695%,60.398865%,83.499146%);fill-opacity:1;" d="M 63.675781 44.546875 L 63.675781 43.6875 L 64.449219 43.734375 L 64.730469 43.640625 L 64.695313 40.917969 L 64.695313 40.90625 L 64.6875 40.316406 L 64.605469 34.476563 L 64.59375 33.316406 L 64.546875 30.316406 L 63.277344 26.160156 L 61.675781 26.160156 L 61.675781 25.230469 L 64.742188 25.230469 L 66.582031 30.316406 L 66.582031 43.78125 L 67.851563 43.78125 L 67.851563 44.546875 L 63.675781 44.546875 "/>
<path style="fill:none;stroke-width:0.03335;stroke-linecap:butt;stroke-linejoin:miter;stroke:rgb(19.999695%,60.398865%,83.499146%);stroke-opacity:1;stroke-miterlimit:4;" d="M 636.757813 158.93125 L 636.757813 167.525 L 644.492188 167.05625 L 647.304688 167.99375 L 646.953125 195.220312 L 646.953125 195.3375 L 646.875 201.235937 L 646.054688 259.634375 L 645.9375 271.235937 L 645.46875 301.235937 L 632.773438 342.798437 L 616.757813 342.798437 L 616.757813 352.095312 L 647.421875 352.095312 L 665.820313 301.235937 L 665.820313 166.5875 L 678.515625 166.5875 L 678.515625 158.93125 Z M 636.757813 158.93125 " transform="matrix(0.1,0,0,-0.1,0,60.44)"/>
<path style=" stroke:none;fill-rule:nonzero;fill:rgb(19.999695%,60.398865%,83.499146%);fill-opacity:1;" d="M 64.695313 40.90625 L 64.695313 40.917969 C 64.175781 41.960938 62.609375 42.460938 61.324219 42.390625 C 57.644531 42.207031 56.285156 38.554688 57.019531 35.832031 C 57.882813 32.648438 61.984375 31.777344 64.550781 33.320313 L 64.597656 33.320313 L 64.605469 34.476563 L 64.503906 34.476563 C 61.40625 31.695313 59.179688 34.734375 59.472656 37.953125 C 59.234375 41.230469 62.871094 43.261719 64.640625 40.316406 L 64.6875 40.316406 L 64.695313 40.90625 "/>
<path style="fill:none;stroke-width:1.14495;stroke-linecap:butt;stroke-linejoin:miter;stroke:rgb(19.999695%,60.398865%,83.499146%);stroke-opacity:1;stroke-miterlimit:4;" d="M 646.953125 195.3375 L 646.953125 195.220312 C 641.757813 184.790625 626.09375 179.790625 613.242188 180.49375 C 576.445313 182.329687 562.851563 218.853125 570.195313 246.079687 C 578.828125 277.915625 619.84375 286.626562 645.507813 271.196875 L 645.976563 271.196875 L 646.054688 259.634375 L 645.039063 259.634375 C 614.0625 287.446875 591.796875 257.05625 594.726563 224.86875 C 592.34375 192.095312 628.710938 171.782812 646.40625 201.235937 L 646.875 201.235937 Z M 646.953125 195.3375 " transform="matrix(0.1,0,0,-0.1,0,60.44)"/>
<path style=" stroke:none;fill-rule:nonzero;fill:rgb(19.999695%,60.398865%,83.499146%);fill-opacity:1;" d="M 57.957031 26.453125 L 61.042969 26.453125 L 65.710938 30.960938 L 65.710938 31.113281 L 63.722656 31.113281 L 59.578125 27.382813 L 57.957031 27.382813 L 57.957031 26.453125 "/>
<path style="fill:none;stroke-width:0.03335;stroke-linecap:butt;stroke-linejoin:miter;stroke:rgb(19.999695%,60.398865%,83.499146%);stroke-opacity:1;stroke-miterlimit:4;" d="M 579.570313 339.86875 L 610.429688 339.86875 L 657.109375 294.790625 L 657.109375 293.267187 L 637.226563 293.267187 L 595.78125 330.571875 L 579.570313 330.571875 Z M 579.570313 339.86875 " transform="matrix(0.1,0,0,-0.1,0,60.44)"/>
<path style=" stroke:none;fill-rule:nonzero;fill:rgb(19.999695%,60.398865%,83.499146%);fill-opacity:1;" d="M 42.0625 36.113281 L 40.503906 36.113281 C 42.890625 34.910156 41.46875 32.140625 40.859375 30.714844 L 42.683594 30.714844 C 43.71875 31.609375 44.398438 32.417969 44.238281 33.84375 C 44.105469 35.152344 43.410156 36.441406 42.0625 36.3125 L 42.0625 36.113281 "/>
<path style="fill:none;stroke-width:1.14495;stroke-linecap:butt;stroke-linejoin:miter;stroke:rgb(19.999695%,60.398865%,83.499146%);stroke-opacity:1;stroke-miterlimit:4;" d="M 420.625 243.267187 L 405.039063 243.267187 C 428.90625 255.298437 414.6875 282.99375 408.59375 297.251562 L 426.835938 297.251562 C 437.1875 288.30625 443.984375 280.220312 442.382813 265.9625 C 441.054688 252.876562 434.101563 239.985937 420.625 241.275 Z M 420.625 243.267187 " transform="matrix(0.1,0,0,-0.1,0,60.44)"/>
<path style=" stroke:none;fill-rule:nonzero;fill:rgb(19.999695%,60.398865%,83.499146%);fill-opacity:1;" d="M 43.152344 40.515625 L 43.152344 43.355469 C 42.945313 43.519531 42.753906 43.621094 42.539063 43.75 C 40.359375 44.945313 36.496094 44.363281 36.292969 41.238281 L 36.292969 36.113281 L 38.65625 36.113281 L 38.65625 42.253906 C 38.8125 44.539063 43.015625 44.339844 43.015625 40.515625 L 43.152344 40.515625 "/>
<path style="fill:none;stroke-width:1.14495;stroke-linecap:butt;stroke-linejoin:miter;stroke:rgb(19.999695%,60.398865%,83.499146%);stroke-opacity:1;stroke-miterlimit:4;" d="M 431.523438 199.24375 L 431.523438 170.845312 C 429.453125 169.204687 427.539063 168.189062 425.390625 166.9 C 403.59375 154.946875 364.960938 160.767187 362.929688 192.017187 L 362.929688 243.267187 L 386.5625 243.267187 L 386.5625 181.860937 C 388.125 159.009375 430.15625 161.001562 430.15625 199.24375 Z M 431.523438 199.24375 " transform="matrix(0.1,0,0,-0.1,0,60.44)"/>
<path style="fill:none;stroke-width:4.08;stroke-linecap:butt;stroke-linejoin:round;stroke:rgb(19.999695%,60.398865%,83.499146%);stroke-opacity:1;stroke-miterlimit:4;" d="M 347.8125 243.267187 L 422.539063 243.267187 " transform="matrix(0.1,0,0,-0.1,0,60.44)"/>
<path style="fill:none;stroke-width:10.538;stroke-linecap:butt;stroke-linejoin:round;stroke:rgb(19.999695%,60.398865%,83.499146%);stroke-opacity:1;stroke-miterlimit:4;" d="M 11.835938 297.251562 L 506.796875 297.251562 " transform="matrix(0.1,0,0,-0.1,0,60.44)"/>
<path style="fill:none;stroke-width:10.538;stroke-linecap:butt;stroke-linejoin:round;stroke:rgb(19.999695%,60.398865%,83.499146%);stroke-opacity:1;stroke-miterlimit:4;" d="M 579.570313 297.68125 L 852.109375 297.68125 " transform="matrix(0.1,0,0,-0.1,0,60.44)"/>
<path style=" stroke:none;fill-rule:nonzero;fill:rgb(19.999695%,60.398865%,83.499146%);fill-opacity:1;" d="M 68.425781 27.21875 C 69.066406 27.21875 69.585938 27.707031 69.585938 28.304688 C 69.585938 28.902344 69.066406 29.386719 68.425781 29.386719 C 67.78125 29.386719 67.261719 28.902344 67.261719 28.304688 C 67.261719 27.707031 67.78125 27.21875 68.425781 27.21875 "/>
<path style="fill:none;stroke-width:1.09481;stroke-linecap:butt;stroke-linejoin:miter;stroke:rgb(19.999695%,60.398865%,83.499146%);stroke-opacity:1;stroke-miterlimit:4;" d="M 684.257813 332.2125 C 690.664063 332.2125 695.859375 327.329687 695.859375 321.353125 C 695.859375 315.376562 690.664063 310.532812 684.257813 310.532812 C 677.8125 310.532812 672.617188 315.376562 672.617188 321.353125 C 672.617188 327.329687 677.8125 332.2125 684.257813 332.2125 Z M 684.257813 332.2125 " transform="matrix(0.1,0,0,-0.1,0,60.44)"/>
<path style="fill:none;stroke-width:11.6;stroke-linecap:butt;stroke-linejoin:miter;stroke:rgb(19.999695%,60.398865%,83.499146%);stroke-opacity:1;stroke-miterlimit:10;" d="M 587.109375 258.071875 L 653.4375 207.134375 " transform="matrix(0.1,0,0,-0.1,0,60.44)"/>
</g>
</svg>
