<?xml version="1.0" encoding="UTF-8"?>
<svg xmlns="http://www.w3.org/2000/svg" xmlns:xlink="http://www.w3.org/1999/xlink" width="180.36pt" height="35.36pt" viewBox="0 0 180.36 35.36" version="1.1">
<defs>
<clipPath id="clip1">
  <path d="M 0 0 L 180.359375 0 L 180.359375 35.359375 L 0 35.359375 Z M 0 0 "/>
</clipPath>
</defs>
<g id="surface1">
<g clip-path="url(#clip1)" clip-rule="nonzero">
<path style=" stroke:none;fill-rule:nonzero;fill:rgb(63.476563%,5.488586%,21.556091%);fill-opacity:1;" d="M 0 35.359375 L 180.359375 35.359375 L 180.359375 0.00390625 L 0 0.00390625 Z M 0 35.359375 "/>
</g>
<path style=" stroke:none;fill-rule:nonzero;fill:rgb(100%,100%,100%);fill-opacity:1;" d="M 77.828125 26.222656 L 77.664063 27.113281 L 78.488281 27.113281 L 78.652344 26.222656 Z M 77.828125 26.222656 "/>
<path style=" stroke:none;fill-rule:nonzero;fill:rgb(100%,100%,100%);fill-opacity:1;" d="M 79.34375 26.222656 L 79.179688 27.113281 L 80.003906 27.113281 L 80.164063 26.222656 Z M 79.34375 26.222656 "/>
<path style=" stroke:none;fill-rule:nonzero;fill:rgb(100%,100%,100%);fill-opacity:1;" d="M 80.859375 26.222656 L 80.695313 27.113281 L 81.519531 27.113281 L 81.679688 26.222656 Z M 80.859375 26.222656 "/>
<path style=" stroke:none;fill-rule:nonzero;fill:rgb(100%,100%,100%);fill-opacity:1;" d="M 83.542969 27.136719 C 83.417969 27.148438 83.265625 27.152344 83.074219 27.152344 C 82.796875 27.152344 82.609375 27.101563 82.515625 26.992188 C 82.417969 26.890625 82.394531 26.710938 82.441406 26.453125 L 82.808594 24.476563 L 82.410156 24.476563 L 82.523438 23.863281 L 82.921875 23.863281 L 83.082031 22.988281 L 83.847656 22.988281 L 83.6875 23.863281 L 84.148438 23.863281 L 84.03125 24.476563 L 83.570313 24.476563 L 83.234375 26.308594 C 83.222656 26.375 83.234375 26.425781 83.273438 26.457031 C 83.3125 26.488281 83.378906 26.503906 83.476563 26.503906 L 83.660156 26.492188 "/>
<path style=" stroke:none;fill-rule:nonzero;fill:rgb(100%,100%,100%);fill-opacity:1;" d="M 84.035156 27.113281 L 84.84375 22.722656 L 85.605469 22.722656 L 85.320313 24.277344 L 85.394531 24.195313 C 85.636719 23.914063 85.929688 23.777344 86.277344 23.777344 C 86.589844 23.777344 86.8125 23.875 86.957031 24.074219 C 87.097656 24.269531 87.132813 24.546875 87.066406 24.894531 L 86.65625 27.113281 L 85.894531 27.113281 L 86.265625 25.105469 C 86.300781 24.898438 86.292969 24.746094 86.230469 24.644531 C 86.175781 24.546875 86.066406 24.496094 85.90625 24.496094 C 85.707031 24.496094 85.542969 24.5625 85.40625 24.695313 C 85.269531 24.828125 85.183594 25.011719 85.140625 25.246094 L 84.796875 27.113281 L 84.417969 27.113281 "/>
<path style=" stroke:none;fill-rule:nonzero;fill:rgb(100%,100%,100%);fill-opacity:1;" d="M 89.480469 25.148438 L 89.484375 25.035156 C 89.484375 24.847656 89.445313 24.707031 89.367188 24.617188 C 89.289063 24.527344 89.167969 24.480469 89.007813 24.480469 C 88.800781 24.480469 88.632813 24.570313 88.5 24.746094 C 88.421875 24.851563 88.355469 24.984375 88.296875 25.148438 Z M 88.566406 27.199219 C 88.1875 27.199219 87.898438 27.097656 87.695313 26.902344 C 87.496094 26.699219 87.394531 26.410156 87.394531 26.035156 C 87.394531 25.953125 87.398438 25.871094 87.410156 25.777344 C 87.417969 25.683594 87.429688 25.59375 87.445313 25.5 C 87.546875 24.960938 87.746094 24.539063 88.042969 24.234375 C 88.34375 23.925781 88.710938 23.777344 89.140625 23.777344 C 89.503906 23.777344 89.78125 23.875 89.964844 24.074219 C 90.152344 24.273438 90.246094 24.570313 90.246094 24.953125 C 90.246094 25.046875 90.238281 25.152344 90.230469 25.261719 C 90.21875 25.371094 90.203125 25.484375 90.175781 25.601563 L 90.15625 25.707031 L 88.171875 25.707031 L 88.167969 25.75 C 88.160156 25.808594 88.15625 25.863281 88.15625 25.917969 C 88.15625 26.117188 88.207031 26.261719 88.292969 26.363281 C 88.382813 26.460938 88.515625 26.507813 88.695313 26.507813 C 88.824219 26.507813 88.941406 26.476563 89.046875 26.414063 C 89.15625 26.351563 89.230469 26.269531 89.277344 26.167969 L 90.046875 26.167969 C 89.914063 26.484375 89.710938 26.738281 89.445313 26.921875 C 89.175781 27.105469 88.882813 27.199219 88.566406 27.199219 "/>
<path style=" stroke:none;fill-rule:nonzero;fill:rgb(100%,100%,100%);fill-opacity:1;" d="M 91.914063 27.113281 L 92.515625 23.863281 L 93.257813 23.863281 L 93.171875 24.328125 L 93.277344 24.195313 C 93.519531 23.914063 93.8125 23.777344 94.15625 23.777344 C 94.472656 23.777344 94.695313 23.875 94.835938 24.074219 C 94.976563 24.269531 95.015625 24.546875 94.949219 24.894531 L 94.539063 27.113281 L 93.777344 27.113281 L 94.144531 25.105469 C 94.183594 24.898438 94.171875 24.746094 94.113281 24.644531 C 94.054688 24.546875 93.945313 24.496094 93.785156 24.496094 C 93.589844 24.496094 93.421875 24.5625 93.289063 24.695313 C 93.152344 24.828125 93.0625 25.011719 93.019531 25.246094 L 92.679688 27.113281 L 91.917969 27.113281 "/>
<path style=" stroke:none;fill-rule:nonzero;fill:rgb(100%,100%,100%);fill-opacity:1;" d="M 97.078125 25.929688 L 97.148438 25.535156 C 97.078125 25.582031 96.996094 25.617188 96.90625 25.636719 L 96.601563 25.707031 C 96.398438 25.75 96.253906 25.8125 96.164063 25.878906 C 96.078125 25.949219 96.019531 26.050781 95.996094 26.183594 C 95.992188 26.203125 95.992188 26.203125 95.996094 26.183594 C 95.992188 26.203125 95.988281 26.226563 95.988281 26.242188 C 95.984375 26.265625 95.984375 26.28125 95.984375 26.300781 C 95.984375 26.390625 96.011719 26.460938 96.0625 26.515625 C 96.117188 26.5625 96.1875 26.585938 96.28125 26.585938 C 96.523438 26.585938 96.738281 26.480469 96.925781 26.265625 C 96.957031 26.230469 96.988281 26.179688 97.015625 26.117188 C 97.046875 26.050781 97.066406 25.988281 97.078125 25.929688 M 95.957031 27.199219 C 95.722656 27.199219 95.535156 27.136719 95.398438 27.011719 C 95.261719 26.882813 95.195313 26.707031 95.195313 26.484375 C 95.195313 26.445313 95.195313 26.40625 95.203125 26.359375 C 95.207031 26.316406 95.210938 26.269531 95.21875 26.226563 C 95.269531 25.953125 95.390625 25.726563 95.578125 25.542969 C 95.765625 25.363281 95.996094 25.25 96.269531 25.207031 L 96.914063 25.105469 C 96.972656 25.097656 97.03125 25.078125 97.085938 25.054688 C 97.152344 25.027344 97.207031 24.980469 97.238281 24.925781 C 97.273438 24.867188 97.292969 24.800781 97.289063 24.726563 C 97.289063 24.648438 97.265625 24.585938 97.21875 24.542969 C 97.152344 24.484375 97.035156 24.457031 96.859375 24.457031 C 96.730469 24.457031 96.617188 24.496094 96.527344 24.574219 C 96.433594 24.648438 96.363281 24.761719 96.308594 24.914063 L 95.589844 24.914063 C 95.664063 24.542969 95.828125 24.257813 96.078125 24.066406 C 96.332031 23.871094 96.660156 23.777344 97.070313 23.777344 C 97.449219 23.777344 97.71875 23.859375 97.886719 24.019531 C 98.007813 24.140625 98.070313 24.300781 98.066406 24.503906 C 98.070313 24.574219 98.0625 24.652344 98.046875 24.730469 L 97.71875 26.5 C 97.691406 26.644531 97.683594 26.753906 97.695313 26.828125 C 97.707031 26.910156 97.738281 26.960938 97.789063 26.992188 L 97.765625 27.109375 L 96.9375 27.109375 C 96.925781 26.980469 96.929688 26.855469 96.945313 26.730469 C 96.644531 27.042969 96.316406 27.199219 95.957031 27.199219 "/>
<path style=" stroke:none;fill-rule:nonzero;fill:rgb(100%,100%,100%);fill-opacity:1;" d="M 98.277344 27.113281 L 98.875 23.863281 L 99.621094 23.863281 L 99.53125 24.324219 L 99.648438 24.167969 C 99.871094 23.90625 100.132813 23.777344 100.445313 23.777344 C 100.730469 23.777344 100.933594 23.867188 101.058594 24.046875 C 101.113281 24.121094 101.148438 24.207031 101.167969 24.304688 L 101.273438 24.167969 C 101.480469 23.90625 101.738281 23.777344 102.042969 23.777344 C 102.351563 23.777344 102.578125 23.875 102.714844 24.070313 C 102.8125 24.207031 102.859375 24.375 102.855469 24.578125 C 102.859375 24.675781 102.847656 24.777344 102.828125 24.886719 L 102.417969 27.113281 L 101.652344 27.113281 L 102.039063 25.007813 C 102.074219 24.832031 102.0625 24.707031 102.011719 24.621094 C 101.964844 24.539063 101.871094 24.496094 101.734375 24.496094 C 101.5625 24.496094 101.421875 24.550781 101.3125 24.660156 C 101.203125 24.769531 101.128906 24.933594 101.089844 25.152344 L 100.730469 27.113281 L 99.964844 27.113281 L 100.347656 25.03125 C 100.382813 24.847656 100.371094 24.714844 100.320313 24.628906 C 100.269531 24.539063 100.171875 24.496094 100.03125 24.496094 C 99.859375 24.496094 99.722656 24.550781 99.621094 24.660156 C 99.511719 24.769531 99.441406 24.933594 99.398438 25.152344 L 99.042969 27.113281 L 98.660156 27.113281 "/>
<path style=" stroke:none;fill-rule:nonzero;fill:rgb(100%,100%,100%);fill-opacity:1;" d="M 105.246094 25.148438 L 105.25 25.035156 C 105.25 24.847656 105.210938 24.707031 105.132813 24.617188 C 105.054688 24.527344 104.929688 24.480469 104.769531 24.480469 C 104.566406 24.480469 104.398438 24.570313 104.265625 24.746094 C 104.183594 24.851563 104.117188 24.984375 104.0625 25.148438 Z M 104.328125 27.199219 C 103.953125 27.199219 103.664063 27.097656 103.460938 26.902344 C 103.261719 26.699219 103.160156 26.410156 103.160156 26.035156 C 103.160156 25.953125 103.164063 25.871094 103.175781 25.777344 C 103.183594 25.683594 103.195313 25.59375 103.214844 25.5 C 103.3125 24.960938 103.511719 24.539063 103.808594 24.234375 C 104.109375 23.925781 104.472656 23.777344 104.90625 23.777344 C 105.269531 23.777344 105.546875 23.875 105.730469 24.074219 C 105.917969 24.273438 106.011719 24.570313 106.011719 24.953125 C 106.011719 25.046875 106.007813 25.152344 105.996094 25.261719 C 105.984375 25.371094 105.96875 25.484375 105.945313 25.601563 L 105.925781 25.707031 L 103.9375 25.707031 L 103.933594 25.75 C 103.925781 25.808594 103.921875 25.863281 103.921875 25.917969 C 103.925781 26.117188 103.96875 26.261719 104.058594 26.363281 C 104.148438 26.460938 104.28125 26.507813 104.460938 26.507813 C 104.589844 26.507813 104.710938 26.476563 104.816406 26.414063 C 104.921875 26.351563 104.996094 26.269531 105.039063 26.167969 L 105.8125 26.167969 C 105.679688 26.484375 105.476563 26.738281 105.210938 26.921875 C 104.941406 27.105469 104.648438 27.199219 104.328125 27.199219 "/>
<path style=" stroke:none;fill-rule:nonzero;fill:rgb(100%,100%,100%);fill-opacity:1;" d="M 110.882813 23.863281 L 109.304688 27.089844 C 109.011719 27.6875 108.785156 28.070313 108.621094 28.230469 C 108.457031 28.390625 108.222656 28.472656 107.910156 28.472656 C 107.769531 28.472656 107.652344 28.464844 107.558594 28.453125 L 107.683594 27.769531 C 107.699219 27.78125 107.746094 27.785156 107.832031 27.785156 C 108.039063 27.785156 108.179688 27.738281 108.257813 27.648438 C 108.308594 27.589844 108.371094 27.460938 108.449219 27.257813 L 107.992188 23.863281 L 108.847656 23.863281 L 109.023438 26.289063 L 110.078125 23.863281 L 110.480469 23.863281 "/>
<path style=" stroke:none;fill-rule:nonzero;fill:rgb(100%,100%,100%);fill-opacity:1;" d="M 112.160156 26.480469 C 112.390625 26.480469 112.578125 26.394531 112.726563 26.222656 C 112.875 26.050781 112.976563 25.792969 113.042969 25.449219 C 113.054688 25.390625 113.0625 25.335938 113.066406 25.28125 C 113.070313 25.226563 113.074219 25.175781 113.074219 25.128906 C 113.074219 24.925781 113.027344 24.773438 112.929688 24.664063 C 112.835938 24.550781 112.699219 24.496094 112.523438 24.496094 C 112.292969 24.496094 112.105469 24.582031 111.957031 24.757813 C 111.808594 24.929688 111.703125 25.195313 111.636719 25.542969 C 111.628906 25.597656 111.621094 25.652344 111.613281 25.707031 C 111.609375 25.761719 111.605469 25.8125 111.609375 25.855469 C 111.609375 26.054688 111.65625 26.207031 111.753906 26.316406 C 111.847656 26.425781 111.980469 26.480469 112.160156 26.480469 M 112.023438 27.199219 C 111.652344 27.199219 111.355469 27.085938 111.136719 26.867188 C 110.921875 26.644531 110.808594 26.339844 110.808594 25.960938 C 110.808594 25.894531 110.808594 25.820313 110.820313 25.738281 C 110.828125 25.65625 110.839844 25.574219 110.851563 25.5 C 110.949219 24.972656 111.164063 24.550781 111.484375 24.242188 C 111.808594 23.929688 112.199219 23.777344 112.65625 23.777344 C 113.03125 23.777344 113.328125 23.886719 113.546875 24.113281 C 113.761719 24.339844 113.871094 24.644531 113.871094 25.03125 C 113.871094 25.097656 113.867188 25.171875 113.855469 25.257813 C 113.847656 25.339844 113.839844 25.421875 113.820313 25.5 C 113.726563 26.023438 113.515625 26.4375 113.191406 26.742188 C 112.867188 27.046875 112.480469 27.199219 112.023438 27.199219 "/>
<path style=" stroke:none;fill-rule:nonzero;fill:rgb(100%,100%,100%);fill-opacity:1;" d="M 115.421875 23.863281 L 115.050781 25.871094 C 115.011719 26.078125 115.019531 26.230469 115.078125 26.332031 C 115.136719 26.429688 115.246094 26.480469 115.40625 26.480469 C 115.601563 26.480469 115.765625 26.414063 115.898438 26.28125 C 116.035156 26.148438 116.125 25.964844 116.164063 25.730469 L 116.511719 23.863281 L 117.277344 23.863281 L 116.679688 27.113281 L 115.941406 27.113281 L 116.023438 26.636719 C 115.992188 26.683594 115.957031 26.734375 115.914063 26.78125 C 115.675781 27.058594 115.382813 27.199219 115.039063 27.199219 C 114.726563 27.199219 114.5 27.089844 114.359375 26.871094 C 114.273438 26.730469 114.230469 26.550781 114.230469 26.332031 C 114.230469 26.222656 114.242188 26.097656 114.265625 25.964844 L 114.65625 23.863281 L 115.035156 23.863281 "/>
<path style=" stroke:none;fill-rule:nonzero;fill:rgb(100%,100%,100%);fill-opacity:1;" d="M 121.621094 25.925781 C 121.5 26.320313 121.296875 26.628906 121.015625 26.855469 C 120.734375 27.085938 120.414063 27.199219 120.054688 27.199219 C 119.707031 27.199219 119.4375 27.101563 119.253906 26.90625 C 119.066406 26.710938 118.972656 26.429688 118.972656 26.0625 C 118.972656 25.976563 118.976563 25.886719 118.988281 25.789063 C 118.996094 25.695313 119.011719 25.597656 119.027344 25.5 C 119.128906 24.957031 119.328125 24.539063 119.628906 24.234375 C 119.929688 23.929688 120.296875 23.777344 120.730469 23.777344 C 121.101563 23.777344 121.382813 23.886719 121.570313 24.105469 C 121.722656 24.285156 121.800781 24.523438 121.800781 24.820313 L 121.789063 25.023438 L 121.015625 25.023438 C 121.007813 24.835938 120.972656 24.703125 120.90625 24.621094 C 120.839844 24.539063 120.738281 24.496094 120.601563 24.496094 C 120.402344 24.496094 120.234375 24.582031 120.105469 24.757813 C 119.976563 24.933594 119.878906 25.195313 119.8125 25.542969 C 119.800781 25.605469 119.792969 25.671875 119.785156 25.738281 C 119.777344 25.808594 119.773438 25.867188 119.773438 25.925781 C 119.773438 26.105469 119.8125 26.246094 119.882813 26.347656 C 119.949219 26.445313 120.054688 26.496094 120.183594 26.496094 C 120.328125 26.496094 120.464844 26.445313 120.585938 26.339844 C 120.710938 26.234375 120.796875 26.097656 120.851563 25.925781 L 121.621094 25.925781 "/>
<path style=" stroke:none;fill-rule:nonzero;fill:rgb(100%,100%,100%);fill-opacity:1;" d="M 123.757813 25.929688 L 123.828125 25.535156 C 123.757813 25.582031 123.679688 25.617188 123.589844 25.636719 L 123.28125 25.707031 C 123.078125 25.75 122.933594 25.8125 122.847656 25.878906 C 122.757813 25.949219 122.703125 26.050781 122.679688 26.183594 C 122.675781 26.203125 122.675781 26.203125 122.679688 26.183594 C 122.675781 26.203125 122.671875 26.226563 122.667969 26.242188 C 122.667969 26.265625 122.664063 26.28125 122.664063 26.300781 C 122.664063 26.390625 122.691406 26.460938 122.742188 26.515625 C 122.796875 26.5625 122.871094 26.585938 122.964844 26.585938 C 123.203125 26.585938 123.417969 26.480469 123.605469 26.265625 C 123.636719 26.230469 123.667969 26.179688 123.695313 26.117188 C 123.726563 26.050781 123.746094 25.988281 123.757813 25.929688 M 122.640625 27.199219 C 122.402344 27.199219 122.214844 27.136719 122.078125 27.011719 C 121.945313 26.882813 121.875 26.707031 121.875 26.484375 C 121.875 26.445313 121.878906 26.40625 121.882813 26.359375 C 121.886719 26.316406 121.894531 26.269531 121.902344 26.226563 C 121.949219 25.953125 122.070313 25.726563 122.257813 25.542969 C 122.449219 25.363281 122.679688 25.25 122.949219 25.207031 L 123.597656 25.105469 C 123.65625 25.097656 123.714844 25.078125 123.765625 25.054688 C 123.835938 25.027344 123.886719 24.980469 123.921875 24.925781 C 123.957031 24.867188 123.972656 24.800781 123.972656 24.726563 C 123.972656 24.648438 123.945313 24.585938 123.902344 24.542969 C 123.835938 24.484375 123.714844 24.457031 123.542969 24.457031 C 123.410156 24.457031 123.300781 24.496094 123.207031 24.574219 C 123.113281 24.648438 123.042969 24.761719 122.992188 24.914063 L 122.269531 24.914063 C 122.34375 24.542969 122.507813 24.257813 122.761719 24.066406 C 123.011719 23.871094 123.34375 23.777344 123.753906 23.777344 C 124.128906 23.777344 124.398438 23.859375 124.566406 24.019531 C 124.691406 24.140625 124.75 24.300781 124.75 24.503906 C 124.753906 24.574219 124.742188 24.652344 124.730469 24.730469 L 124.402344 26.5 C 124.375 26.644531 124.367188 26.753906 124.375 26.828125 C 124.386719 26.910156 124.417969 26.960938 124.46875 26.992188 L 124.449219 27.109375 L 123.621094 27.109375 C 123.609375 26.980469 123.609375 26.855469 123.625 26.730469 C 123.324219 27.042969 122.996094 27.199219 122.640625 27.199219 "/>
<path style=" stroke:none;fill-rule:nonzero;fill:rgb(100%,100%,100%);fill-opacity:1;" d="M 124.964844 27.113281 L 125.5625 23.863281 L 126.304688 23.863281 L 126.21875 24.328125 L 126.324219 24.195313 C 126.566406 23.914063 126.859375 23.777344 127.203125 23.777344 C 127.515625 23.777344 127.742188 23.875 127.882813 24.074219 C 128.023438 24.269531 128.0625 24.546875 127.996094 24.894531 L 127.585938 27.113281 L 126.824219 27.113281 L 127.191406 25.105469 C 127.230469 24.898438 127.21875 24.746094 127.160156 24.644531 C 127.101563 24.546875 126.992188 24.496094 126.832031 24.496094 C 126.636719 24.496094 126.472656 24.5625 126.335938 24.695313 C 126.199219 24.828125 126.109375 25.011719 126.070313 25.246094 L 125.726563 27.113281 L 125.347656 27.113281 "/>
<path style=" stroke:none;fill-rule:nonzero;fill:rgb(100%,100%,100%);fill-opacity:1;" d="M 131.039063 25.1875 L 130.828125 26.34375 L 131.765625 26.34375 C 131.996094 26.34375 132.171875 26.296875 132.296875 26.203125 C 132.425781 26.109375 132.503906 25.964844 132.542969 25.773438 C 132.546875 25.738281 132.554688 25.707031 132.554688 25.679688 C 132.558594 25.652344 132.5625 25.625 132.558594 25.601563 C 132.558594 25.460938 132.515625 25.359375 132.429688 25.289063 C 132.347656 25.21875 132.21875 25.1875 132.046875 25.1875 Z M 131.355469 23.488281 L 131.179688 24.4375 L 132.140625 24.4375 C 132.332031 24.4375 132.480469 24.398438 132.585938 24.320313 C 132.691406 24.246094 132.757813 24.125 132.789063 23.96875 C 132.792969 23.941406 132.792969 23.917969 132.796875 23.894531 C 132.800781 23.871094 132.800781 23.847656 132.800781 23.820313 C 132.800781 23.707031 132.765625 23.621094 132.6875 23.570313 C 132.609375 23.515625 132.488281 23.488281 132.320313 23.488281 Z M 129.871094 27.113281 L 130.679688 22.722656 L 132.605469 22.722656 C 132.929688 22.722656 133.179688 22.796875 133.351563 22.949219 C 133.523438 23.101563 133.609375 23.320313 133.613281 23.601563 C 133.613281 23.65625 133.609375 23.710938 133.601563 23.769531 C 133.597656 23.828125 133.589844 23.886719 133.578125 23.945313 C 133.523438 24.242188 133.359375 24.484375 133.089844 24.664063 C 133.046875 24.695313 133 24.71875 132.953125 24.746094 C 133.007813 24.765625 133.058594 24.796875 133.101563 24.832031 C 133.300781 24.988281 133.398438 25.207031 133.398438 25.496094 C 133.398438 25.542969 133.394531 25.589844 133.390625 25.640625 C 133.386719 25.695313 133.378906 25.742188 133.367188 25.792969 C 133.292969 26.207031 133.101563 26.53125 132.800781 26.761719 C 132.5 26.996094 132.121094 27.113281 131.664063 27.113281 L 130.277344 27.113281 "/>
<path style=" stroke:none;fill-rule:nonzero;fill:rgb(100%,100%,100%);fill-opacity:1;" d="M 136.015625 23.691406 L 135.160156 25.46875 L 136.1875 25.46875 L 136.011719 23.691406 Z M 133.503906 27.113281 L 135.746094 22.722656 L 136.6875 22.722656 L 137.238281 27.113281 L 136.34375 27.113281 L 136.257813 26.195313 L 134.804688 26.195313 L 134.371094 27.113281 L 133.9375 27.113281 "/>
<path style=" stroke:none;fill-rule:nonzero;fill:rgb(100%,100%,100%);fill-opacity:1;" d="M 138.472656 27.113281 L 137.710938 27.113281 L 138.519531 22.722656 L 139.378906 22.722656 L 140.390625 25.832031 L 140.964844 22.722656 L 141.726563 22.722656 L 140.917969 27.113281 L 140.105469 27.113281 L 139.050781 23.957031 "/>
<path style=" stroke:none;fill-rule:nonzero;fill:rgb(100%,100%,100%);fill-opacity:1;" d="M 141.746094 27.113281 L 142.558594 22.722656 L 143.375 22.722656 L 143.039063 24.53125 L 144.902344 22.722656 L 145.949219 22.722656 L 144.019531 24.546875 L 145.210938 27.113281 L 144.152344 27.113281 L 143.324219 25.199219 L 142.828125 25.667969 L 142.5625 27.113281 L 142.15625 27.113281 "/>
<path style=" stroke:none;fill-rule:nonzero;fill:rgb(100%,100%,100%);fill-opacity:1;" d="M 148.457031 23.863281 L 148.085938 25.871094 C 148.046875 26.078125 148.054688 26.230469 148.113281 26.332031 C 148.171875 26.429688 148.28125 26.480469 148.441406 26.480469 C 148.636719 26.480469 148.804688 26.414063 148.9375 26.28125 C 149.070313 26.148438 149.160156 25.964844 149.203125 25.730469 L 149.546875 23.863281 L 150.3125 23.863281 L 149.714844 27.113281 L 148.976563 27.113281 L 149.058594 26.636719 C 149.03125 26.683594 148.992188 26.734375 148.949219 26.78125 C 148.710938 27.058594 148.417969 27.199219 148.074219 27.199219 C 147.761719 27.199219 147.535156 27.089844 147.398438 26.871094 C 147.308594 26.730469 147.265625 26.550781 147.265625 26.332031 C 147.265625 26.222656 147.277344 26.097656 147.300781 25.964844 L 147.691406 23.863281 L 148.070313 23.863281 "/>
<path style=" stroke:none;fill-rule:nonzero;fill:rgb(100%,100%,100%);fill-opacity:1;" d="M 151.894531 26.496094 C 152.089844 26.496094 152.261719 26.40625 152.414063 26.230469 C 152.5625 26.050781 152.667969 25.816406 152.722656 25.527344 C 152.730469 25.464844 152.742188 25.398438 152.75 25.335938 C 152.757813 25.269531 152.757813 25.210938 152.757813 25.152344 C 152.757813 24.953125 152.714844 24.796875 152.628906 24.6875 C 152.542969 24.574219 152.421875 24.519531 152.261719 24.519531 C 152.074219 24.519531 151.902344 24.609375 151.753906 24.789063 C 151.597656 24.964844 151.496094 25.191406 151.445313 25.46875 L 151.449219 25.46875 C 151.386719 25.796875 151.394531 26.050781 151.472656 26.226563 C 151.550781 26.40625 151.691406 26.496094 151.894531 26.496094 M 150.996094 23.863281 L 151.710938 23.863281 L 151.628906 24.328125 L 151.6875 24.261719 C 151.972656 23.9375 152.289063 23.777344 152.632813 23.777344 C 152.929688 23.777344 153.160156 23.878906 153.324219 24.078125 C 153.492188 24.277344 153.574219 24.558594 153.574219 24.914063 C 153.574219 24.996094 153.566406 25.085938 153.558594 25.1875 C 153.546875 25.289063 153.535156 25.390625 153.515625 25.488281 C 153.425781 25.976563 153.234375 26.386719 152.941406 26.710938 C 152.648438 27.039063 152.328125 27.199219 151.980469 27.199219 C 151.628906 27.199219 151.378906 27.046875 151.234375 26.738281 L 151.230469 26.726563 L 150.921875 28.386719 L 150.160156 28.386719 "/>
<path style=" stroke:none;fill-rule:nonzero;fill:rgb(100%,100%,100%);fill-opacity:1;" d="M 155.191406 26.480469 C 155.421875 26.480469 155.609375 26.394531 155.757813 26.222656 C 155.90625 26.050781 156.011719 25.792969 156.074219 25.449219 C 156.085938 25.390625 156.09375 25.335938 156.097656 25.28125 C 156.105469 25.226563 156.105469 25.175781 156.105469 25.128906 C 156.105469 24.925781 156.058594 24.773438 155.964844 24.664063 C 155.867188 24.550781 155.730469 24.496094 155.554688 24.496094 C 155.324219 24.496094 155.136719 24.582031 154.988281 24.757813 C 154.839844 24.929688 154.734375 25.195313 154.671875 25.542969 C 154.660156 25.597656 154.652344 25.652344 154.648438 25.707031 C 154.640625 25.761719 154.636719 25.8125 154.640625 25.855469 C 154.640625 26.054688 154.6875 26.207031 154.785156 26.316406 C 154.878906 26.425781 155.015625 26.480469 155.191406 26.480469 M 155.058594 27.199219 C 154.683594 27.199219 154.386719 27.085938 154.171875 26.867188 C 153.953125 26.644531 153.84375 26.339844 153.839844 25.960938 C 153.839844 25.894531 153.84375 25.820313 153.851563 25.738281 C 153.859375 25.65625 153.871094 25.574219 153.886719 25.5 C 153.984375 24.972656 154.195313 24.550781 154.519531 24.242188 C 154.84375 23.929688 155.230469 23.777344 155.6875 23.777344 C 156.0625 23.777344 156.359375 23.886719 156.578125 24.113281 C 156.796875 24.339844 156.902344 24.644531 156.902344 25.03125 C 156.902344 25.097656 156.898438 25.171875 156.890625 25.257813 C 156.882813 25.339844 156.871094 25.421875 156.855469 25.5 C 156.757813 26.023438 156.550781 26.4375 156.226563 26.742188 C 155.902344 27.046875 155.511719 27.199219 155.058594 27.199219 "/>
<path style=" stroke:none;fill-rule:nonzero;fill:rgb(100%,100%,100%);fill-opacity:1;" d="M 157.078125 27.113281 L 157.679688 23.863281 L 158.421875 23.863281 L 158.335938 24.328125 L 158.441406 24.195313 C 158.683594 23.914063 158.976563 23.777344 159.320313 23.777344 C 159.632813 23.777344 159.859375 23.875 160 24.074219 C 160.140625 24.269531 160.179688 24.546875 160.113281 24.894531 L 159.703125 27.113281 L 158.941406 27.113281 L 159.308594 25.105469 C 159.347656 24.898438 159.335938 24.746094 159.277344 24.644531 C 159.21875 24.546875 159.109375 24.496094 158.949219 24.496094 C 158.753906 24.496094 158.589844 24.5625 158.453125 24.695313 C 158.316406 24.828125 158.226563 25.011719 158.183594 25.246094 L 157.84375 27.113281 L 157.464844 27.113281 "/>
<path style=" stroke:none;fill-rule:nonzero;fill:rgb(100%,100%,100%);fill-opacity:1;" d="M 160.730469 26.25 L 161.535156 26.25 L 161.378906 27.113281 L 160.570313 27.113281 Z M 160.992188 25.910156 L 161.164063 23.804688 L 161.359375 22.742188 L 162.199219 22.742188 L 162.003906 23.804688 L 161.394531 25.910156 L 161.191406 25.910156 "/>
<path style=" stroke:none;fill-rule:nonzero;fill:rgb(98.4375%,73.631287%,3.529358%);fill-opacity:1;" d="M 28.828125 9.058594 C 31.210938 9.058594 33.15625 11 33.15625 13.382813 C 33.15625 15.761719 31.210938 17.703125 28.828125 17.703125 C 26.441406 17.703125 24.492188 15.761719 24.492188 13.382813 C 24.492188 11 26.441406 9.058594 28.828125 9.058594 M 33.847656 6.941406 L 38.902344 6.941406 L 38.902344 26.585938 L 33.847656 26.585938 L 33.847656 21.753906 C 29.421875 23.402344 25.277344 23.554688 21.453125 19.769531 C 19.863281 18.101563 18.988281 15.835938 19.363281 11.867188 C 19.410156 11.285156 19.136719 8.824219 18.421875 7.257813 L 22.910156 7.257813 C 24.996094 10.628906 22.261719 14.574219 25.476563 17.324219 C 29.847656 20.195313 33.667969 16.773438 33.847656 13.660156 "/>
<path style=" stroke:none;fill-rule:nonzero;fill:rgb(100%,100%,100%);fill-opacity:1;" d="M 46.246094 13.207031 C 48.191406 13.207031 49.773438 14.816406 49.773438 16.792969 C 49.773438 19.222656 47.414063 20.789063 45.171875 20.054688 L 45.171875 18.421875 C 46.402344 19.152344 48 18.40625 48 16.925781 C 48 15.871094 47.152344 15.011719 46.117188 15.011719 C 45.082031 15.011719 44.234375 15.871094 44.234375 16.925781 C 44.234375 19.128906 44.1875 21.332031 44.1875 23.539063 L 42.71875 23.539063 L 42.71875 16.792969 L 42.730469 16.460938 C 42.769531 14.679688 44.347656 13.226563 46.246094 13.207031 "/>
<path style=" stroke:none;fill-rule:nonzero;fill:rgb(100%,100%,100%);fill-opacity:1;" d="M 50.296875 13.507813 L 51.851563 13.507813 L 51.851563 17.035156 C 51.734375 19.101563 54.960938 19.253906 54.882813 17.035156 L 54.882813 13.507813 L 56.4375 13.507813 L 56.4375 17.125 C 56.59375 21.617188 50.066406 21.3125 50.296875 17.125 "/>
<path style=" stroke:none;fill-rule:nonzero;fill:rgb(100%,100%,100%);fill-opacity:1;" d="M 57.261719 20.183594 L 58.8125 20.183594 L 58.8125 16.65625 C 58.699219 14.589844 61.921875 14.4375 61.847656 16.65625 L 61.847656 20.183594 L 63.402344 20.183594 L 63.402344 16.566406 C 63.554688 12.074219 57.03125 12.378906 57.261719 16.566406 "/>
<path style=" stroke:none;fill-rule:nonzero;fill:rgb(100%,100%,100%);fill-opacity:1;" d="M 78.628906 20.4375 C 80.570313 20.4375 82.15625 18.824219 82.15625 16.847656 C 82.15625 14.417969 79.796875 12.851563 77.554688 13.585938 L 77.554688 15.21875 C 78.785156 14.488281 80.382813 15.234375 80.382813 16.714844 C 80.382813 17.773438 79.535156 18.628906 78.5 18.628906 C 77.464844 18.628906 76.617188 17.773438 76.617188 16.714844 C 76.617188 14.511719 76.570313 12.308594 76.570313 10.101563 L 75.101563 10.101563 L 75.101563 16.847656 L 75.117188 17.179688 C 75.152344 18.960938 76.730469 20.414063 78.628906 20.4375 "/>
<path style=" stroke:none;fill-rule:nonzero;fill:rgb(100%,100%,100%);fill-opacity:1;" d="M 63.832031 15.128906 L 63.832031 13.523438 L 66.910156 13.523438 L 66.910156 20.019531 C 66.925781 22.035156 65.539063 23.605469 63.535156 23.773438 L 63.535156 22.3125 C 64.519531 21.910156 65.285156 21.328125 65.308594 19.992188 L 65.308594 15.128906 "/>
<path style=" stroke:none;fill-rule:nonzero;fill:rgb(100%,100%,100%);fill-opacity:1;" d="M 67.476563 17.285156 C 67.316406 15.378906 68.710938 14.039063 70.042969 13.628906 C 71.929688 13.074219 74.289063 14.058594 74.375 16.726563 L 74.375 20.097656 L 72.9375 20.097656 L 72.949219 16.675781 C 72.847656 15.109375 70.480469 14.457031 69.507813 15.9375 C 69.101563 16.714844 69.011719 17.921875 70.117188 18.546875 C 70.648438 18.738281 71.246094 18.832031 71.992188 18.707031 L 71.992188 20.164063 C 70.804688 20.523438 69.628906 20.433594 68.46875 19.363281 C 67.886719 18.761719 67.605469 18.070313 67.476563 17.285156 "/>
<path style=" stroke:none;fill-rule:nonzero;fill:rgb(100%,100%,100%);fill-opacity:1;" d="M 84.546875 20.183594 L 86.097656 20.183594 L 86.097656 16.65625 C 85.984375 14.589844 89.207031 14.4375 89.132813 16.65625 L 89.132813 20.183594 L 90.6875 20.183594 L 90.6875 16.566406 C 90.84375 12.074219 84.316406 12.378906 84.546875 16.566406 "/>
<path style=" stroke:none;fill-rule:nonzero;fill:rgb(100%,100%,100%);fill-opacity:1;" d="M 91.378906 17.285156 C 91.21875 15.378906 92.613281 14.039063 93.945313 13.628906 C 95.832031 13.074219 98.191406 14.058594 98.273438 16.726563 L 98.273438 20.097656 L 96.839844 20.097656 L 96.851563 16.675781 C 96.75 15.109375 94.382813 14.457031 93.410156 15.9375 C 93.003906 16.714844 92.910156 17.921875 94.019531 18.546875 C 94.550781 18.738281 95.148438 18.832031 95.890625 18.707031 L 95.890625 20.164063 C 94.707031 20.523438 93.53125 20.433594 92.371094 19.363281 C 91.789063 18.761719 91.507813 18.070313 91.378906 17.285156 "/>
<path style=" stroke:none;fill-rule:nonzero;fill:rgb(100%,100%,100%);fill-opacity:1;" d="M 113.3125 20.183594 L 114.867188 20.183594 L 114.867188 16.65625 C 114.753906 14.589844 117.972656 14.4375 117.898438 16.65625 L 117.898438 20.183594 L 119.453125 20.183594 L 119.453125 16.566406 C 119.605469 12.074219 113.082031 12.378906 113.3125 16.566406 "/>
<path style=" stroke:none;fill-rule:nonzero;fill:rgb(100%,100%,100%);fill-opacity:1;" d="M 120.144531 17.285156 C 119.984375 15.378906 121.382813 14.039063 122.710938 13.628906 C 124.597656 13.074219 126.953125 14.058594 127.039063 16.726563 L 127.039063 20.097656 L 125.605469 20.097656 L 125.617188 16.675781 C 125.515625 15.109375 123.148438 14.457031 122.175781 15.9375 C 121.769531 16.714844 121.679688 17.921875 122.785156 18.546875 C 123.316406 18.738281 123.914063 18.832031 124.660156 18.707031 L 124.660156 20.164063 C 123.472656 20.523438 122.296875 20.433594 121.136719 19.363281 C 120.554688 18.761719 120.273438 18.070313 120.144531 17.285156 "/>
<path style=" stroke:none;fill-rule:nonzero;fill:rgb(100%,100%,100%);fill-opacity:1;" d="M 104.289063 10.285156 C 104.96875 10.285156 105.515625 10.835938 105.515625 11.511719 C 105.515625 12.195313 104.96875 12.746094 104.289063 12.746094 C 103.605469 12.746094 103.054688 12.195313 103.054688 11.511719 C 103.054688 10.835938 103.605469 10.285156 104.289063 10.285156 "/>
<path style=" stroke:none;fill-rule:nonzero;fill:rgb(100%,100%,100%);fill-opacity:1;" d="M 103.488281 20.183594 L 105.226563 20.183594 L 105.226563 13.574219 L 103.488281 13.574219 Z M 103.488281 20.183594 "/>
<path style=" stroke:none;fill-rule:nonzero;fill:rgb(100%,100%,100%);fill-opacity:1;" d="M 99.121094 11.277344 L 100.789063 11.277344 L 100.789063 13.597656 L 102.816406 13.597656 L 102.816406 15.195313 L 100.789063 15.195313 L 100.789063 16.289063 C 100.726563 18.226563 101.335938 18.652344 102.71875 18.996094 L 102.714844 20.300781 C 100.042969 20.535156 99.097656 18.925781 99.121094 16.289063 "/>
<path style=" stroke:none;fill-rule:nonzero;fill:rgb(100%,100%,100%);fill-opacity:1;" d="M 109.28125 15.199219 C 110.265625 15.199219 111.070313 16.003906 111.070313 16.992188 C 111.070313 17.976563 110.265625 18.78125 109.28125 18.78125 C 108.292969 18.78125 107.488281 17.976563 107.488281 16.992188 C 107.488281 16.003906 108.292969 15.199219 109.28125 15.199219 M 109.28125 13.546875 C 111.175781 13.546875 112.722656 15.09375 112.722656 16.992188 C 112.722656 18.886719 111.175781 20.433594 109.28125 20.433594 C 107.382813 20.433594 105.835938 18.886719 105.835938 16.992188 C 105.835938 15.09375 107.382813 13.546875 109.28125 13.546875 "/>
<path style=" stroke:none;fill-rule:nonzero;fill:rgb(100%,100%,100%);fill-opacity:1;" d="M 142.183594 17.285156 C 142.019531 15.378906 143.417969 14.039063 144.746094 13.628906 C 146.636719 13.074219 148.992188 14.058594 149.078125 16.726563 L 149.078125 20.097656 L 147.644531 20.097656 L 147.65625 16.675781 C 147.554688 15.109375 145.1875 14.457031 144.214844 15.9375 C 143.808594 16.714844 143.714844 17.921875 144.820313 18.546875 C 145.355469 18.738281 145.953125 18.832031 146.695313 18.707031 L 146.695313 20.164063 C 145.511719 20.523438 144.335938 20.433594 143.171875 19.363281 C 142.59375 18.761719 142.3125 18.070313 142.183594 17.285156 "/>
<path style=" stroke:none;fill-rule:nonzero;fill:rgb(100%,100%,100%);fill-opacity:1;" d="M 149.976563 20.183594 L 151.53125 20.183594 L 151.53125 16.65625 C 151.414063 14.589844 154.636719 14.4375 154.5625 16.65625 L 154.5625 20.183594 L 156.117188 20.183594 L 156.117188 16.566406 C 156.269531 12.074219 149.746094 12.378906 149.976563 16.566406 "/>
<path style=" stroke:none;fill-rule:nonzero;fill:rgb(100%,100%,100%);fill-opacity:1;" d="M 138.195313 20.4375 C 140.136719 20.4375 141.722656 18.824219 141.722656 16.847656 C 141.722656 14.417969 139.363281 12.851563 137.117188 13.585938 L 137.117188 15.21875 C 138.347656 14.488281 139.945313 15.234375 139.945313 16.714844 C 139.945313 17.773438 139.101563 18.628906 138.0625 18.628906 C 137.027344 18.628906 136.183594 17.773438 136.183594 16.714844 C 136.183594 14.511719 136.132813 12.308594 136.132813 10.101563 L 134.664063 10.101563 L 134.664063 16.847656 L 134.679688 17.179688 C 134.71875 18.960938 136.292969 20.414063 138.195313 20.4375 "/>
<path style=" stroke:none;fill-rule:nonzero;fill:rgb(100%,100%,100%);fill-opacity:1;" d="M 127.871094 10.226563 L 129.386719 10.226563 L 129.386719 15.820313 C 129.296875 18.0625 130.285156 18.625 131.886719 18.84375 L 131.878906 20.300781 C 128.898438 20.558594 127.847656 18.761719 127.871094 15.820313 "/>
<path style=" stroke:none;fill-rule:nonzero;fill:rgb(100%,100%,100%);fill-opacity:1;" d="M 156.914063 10.148438 L 158.613281 10.148438 L 158.613281 15.335938 C 159.109375 13.984375 160.285156 13.027344 161.648438 13.027344 C 161.746094 13.027344 161.84375 13.035156 161.9375 13.042969 L 161.9375 14.671875 C 160.839844 14.914063 160.019531 15.804688 160.019531 16.867188 C 160.019531 17.921875 160.839844 18.820313 161.9375 19.058594 L 161.9375 20.480469 C 161.84375 20.488281 161.746094 20.496094 161.648438 20.496094 C 160.285156 20.496094 159.109375 19.539063 158.613281 18.1875 L 158.613281 20.183594 L 156.914063 20.183594 "/>
</g>
</svg>
