<?xml version="1.0" encoding="UTF-8"?>
<svg xmlns="http://www.w3.org/2000/svg" xmlns:xlink="http://www.w3.org/1999/xlink" width="532pt" height="186pt" viewBox="0 0 532 186" version="1.1">
<g id="surface1">
<path style=" stroke:none;fill-rule:evenodd;fill:rgb(0%,71.289063%,94.139099%);fill-opacity:1;" d="M 182.867188 92.089844 C 182.867188 41.667969 141.996094 0.796875 91.578125 0.796875 C 41.15625 0.796875 0.289063 41.667969 0.289063 92.089844 C 0.289063 140.597656 37.71875 180.320313 85.464844 183.378906 L 85.464844 112.714844 C 76.679688 110.039063 70.1875 102.019531 70.1875 92.089844 C 70.1875 80.628906 79.734375 71.078125 91.578125 71.078125 C 103.417969 71.078125 112.96875 80.628906 112.96875 92.089844 C 112.96875 102.019531 106.476563 110.039063 97.308594 112.714844 L 97.308594 183.378906 C 145.054688 180.320313 182.867188 140.597656 182.867188 92.089844 "/>
<path style=" stroke:none;fill-rule:evenodd;fill:rgb(15.281677%,11.767578%,47.459412%);fill-opacity:1;" d="M 312.21875 54.027344 C 317.753906 42.964844 323.285156 31.898438 328.816406 20.832031 C 297.398438 -8.546875 237.707031 -7.246094 218.246094 34.804688 C 213.0625 46.015625 213.242188 58.4375 218.1875 71.496094 C 220.578125 77.796875 224.875 85.65625 231.699219 91.289063 C 235.183594 94.167969 248.582031 100.800781 259.414063 105.710938 C 269.546875 110.304688 283.496094 113.601563 289.898438 122.660156 C 297.21875 133.007813 292.699219 145.785156 275.722656 148.113281 C 266.210938 149.417969 252.050781 145.460938 230.945313 128.433594 C 223.503906 138.164063 216.066406 147.894531 208.625 157.625 C 279.605469 219.527344 345.128906 165.328125 329.777344 117.15625 C 325.875 104.921875 317.851563 95.511719 307.910156 88.332031 C 292.535156 77.226563 276.484375 74.21875 265.769531 69.546875 C 245.691406 60.792969 248.523438 36.15625 276.367188 37.660156 C 293.988281 38.613281 299.648438 43.644531 312.21875 54.027344 "/>
<path style="fill:none;stroke-width:0.9978;stroke-linecap:butt;stroke-linejoin:miter;stroke:rgb(0%,0%,0%);stroke-opacity:1;stroke-miterlimit:22.9256;" d="M 3122.1875 1319.726563 C 3177.539063 1430.351563 3232.851563 1541.015625 3288.164063 1651.679688 C 2973.984375 1945.46875 2377.070313 1932.460938 2182.460938 1511.953125 C 2130.625 1399.84375 2132.421875 1275.625 2181.875 1145.039063 C 2205.78125 1082.03125 2248.75 1003.4375 2316.992188 947.109375 C 2351.835938 918.320313 2485.820313 851.992188 2594.140625 802.890625 C 2695.46875 756.953125 2834.960938 723.984375 2898.984375 633.398438 C 2972.1875 529.921875 2926.992188 402.148438 2757.226563 378.867188 C 2662.109375 365.820313 2520.507813 405.390625 2309.453125 575.664063 C 2235.039063 478.359375 2160.664063 381.054688 2086.25 283.75 C 2796.054688 -335.273438 3451.289063 206.71875 3297.773438 688.4375 C 3258.75 810.78125 3178.515625 904.882813 3079.101563 976.679688 C 2925.351563 1087.734375 2764.84375 1117.8125 2657.695313 1164.53125 C 2456.914063 1252.070313 2485.234375 1498.4375 2763.671875 1483.398438 C 2939.882813 1473.867188 2996.484375 1423.554688 3122.1875 1319.726563 Z M 3122.1875 1319.726563 " transform="matrix(0.1,0,0,-0.1,0,186)"/>
<path style=" stroke:none;fill-rule:evenodd;fill:rgb(15.281677%,11.767578%,47.459412%);fill-opacity:1;" d="M 348.195313 0.722656 L 417.023438 0.722656 C 440.160156 0.722656 467.289063 20.828125 467.289063 44.832031 C 467.289063 50.378906 467.671875 54.535156 467.292969 60.972656 C 466.539063 73.710938 454.785156 88.007813 447.214844 88.007813 C 459 88.007813 470.777344 104.890625 473.667969 116.578125 C 480.691406 144.964844 465.777344 185.386719 417.023438 185.386719 L 348.195313 185.386719 Z M 385.109375 34.421875 L 412.15625 34.421875 C 422.308594 34.421875 430.613281 43.035156 430.613281 53.570313 L 430.613281 56.3125 C 430.613281 65.335938 423.496094 72.71875 414.800781 72.71875 L 403.640625 72.71875 L 403.640625 106.859375 L 416.660156 106.859375 C 428.425781 106.859375 438.054688 116.847656 438.054688 129.050781 L 438.054688 129.054688 C 438.054688 141.257813 428.425781 151.246094 416.660156 151.246094 L 385.109375 151.246094 C 385.109375 112.304688 385.109375 73.363281 385.109375 34.421875 "/>
<path style="fill:none;stroke-width:0.9978;stroke-linecap:butt;stroke-linejoin:miter;stroke:rgb(0%,0%,0%);stroke-opacity:1;stroke-miterlimit:22.9256;" d="M 3481.953125 1852.773438 L 4170.234375 1852.773438 C 4401.601563 1852.773438 4672.890625 1651.71875 4672.890625 1411.679688 C 4672.890625 1356.210938 4676.71875 1314.648438 4672.929688 1250.273438 C 4665.390625 1122.890625 4547.851563 979.921875 4472.148438 979.921875 C 4590 979.921875 4707.773438 811.09375 4736.679688 694.21875 C 4806.914063 410.351563 4657.773438 6.132813 4170.234375 6.132813 L 3481.953125 6.132813 Z M 3851.09375 1515.78125 L 4121.5625 1515.78125 C 4223.085938 1515.78125 4306.132813 1429.648438 4306.132813 1324.296875 L 4306.132813 1296.875 C 4306.132813 1206.640625 4234.960938 1132.8125 4148.007813 1132.8125 L 4036.40625 1132.8125 L 4036.40625 791.40625 L 4166.601563 791.40625 C 4284.257813 791.40625 4380.546875 691.523438 4380.546875 569.492188 L 4380.546875 569.453125 C 4380.546875 447.421875 4284.257813 347.539063 4166.601563 347.539063 L 3851.09375 347.539063 C 3851.09375 736.953125 3851.09375 1126.367188 3851.09375 1515.78125 Z M 3851.09375 1515.78125 " transform="matrix(0.1,0,0,-0.1,0,186)"/>
<path style=" stroke:none;fill-rule:evenodd;fill:rgb(15.281677%,11.767578%,47.459412%);fill-opacity:1;" d="M 492.066406 0.722656 L 530.988281 0.722656 L 530.988281 185.386719 L 492.066406 185.386719 L 492.066406 0.722656 "/>
<path style="fill:none;stroke-width:0.9978;stroke-linecap:butt;stroke-linejoin:miter;stroke:rgb(0%,0%,0%);stroke-opacity:1;stroke-miterlimit:22.9256;" d="M 4920.664063 1852.773438 L 5309.882813 1852.773438 L 5309.882813 6.132813 L 4920.664063 6.132813 Z M 4920.664063 1852.773438 " transform="matrix(0.1,0,0,-0.1,0,186)"/>
</g>
</svg>
